<svg width="58" height="57" viewBox="0 0 58 57" fill="none" xmlns="http://www.w3.org/2000/svg">
<path d="M47.2546 15.6949C46.5921 15.6976 45.9306 15.7462 45.2749 15.8402C44.5421 14.4318 43.4294 13.2565 42.0628 12.4474C40.6961 11.6382 39.1301 11.2275 37.542 11.2618C37.1639 11.2654 36.7862 11.2897 36.4107 11.3345C36.146 9.5737 35.2741 7.96064 33.9457 6.77406C32.6173 5.58748 30.9158 4.90191 29.1353 4.83583C27.3547 4.76975 25.6071 5.32731 24.1942 6.41216C22.7814 7.49701 21.7922 9.04101 21.3975 10.7773C20.7702 10.609 20.1238 10.5222 19.4744 10.5189C17.5735 10.5198 15.7408 11.2269 14.3325 12.5029C12.9243 13.7788 12.0411 15.5324 11.8546 17.4229C10.8344 16.8483 9.69589 16.5154 8.52669 16.4498C7.35749 16.3842 6.18881 16.5876 5.11067 17.0444C4.03253 17.5012 3.07369 18.1992 2.30798 19.0846C1.54228 19.9701 0.990146 21.0193 0.694107 22.1515C0.398067 23.2838 0.366019 24.4688 0.600431 25.6154C0.834843 26.7619 1.32946 27.8394 2.04619 28.7649C2.76292 29.6904 3.68264 30.4391 4.73452 30.9534C5.7864 31.4678 6.94237 31.7339 8.11341 31.7315C8.4922 31.7307 8.87038 31.701 9.24466 31.6427C9.612 32.6075 10.1708 33.4881 10.8875 34.2315C11.6042 34.9749 12.4639 35.5658 13.415 35.9686C14.3661 36.3714 15.3889 36.5779 16.4219 36.5755C17.4548 36.5731 18.4767 36.3619 19.4259 35.9547C21.4379 37.9169 24.7589 39.1846 28.5163 39.1846C33.5422 39.1846 37.7844 36.8914 39.1581 33.7341C40.0927 34.434 41.1755 34.9104 42.3232 35.1265C43.4709 35.3426 44.6529 35.2928 45.7783 34.9808C46.9037 34.6689 47.9426 34.1031 48.8148 33.327C49.6871 32.5509 50.3697 31.5852 50.8099 30.5042C54.7127 29.4221 57.4843 26.6202 57.4843 23.3337C57.4843 19.1267 52.9108 15.6949 47.2546 15.6949Z" fill="white"/>
<path d="M17.5184 46.1452C17.389 46.9683 16.9392 47.7068 16.2672 48.1999C15.5951 48.693 14.7553 48.9007 13.9307 48.7777C12.3632 48.4224 11.442 46.662 11.8541 44.8452C12.2662 43.0284 15.9831 39.8792 15.9831 39.8792C15.9831 39.8792 17.9305 44.3203 17.5184 46.1452Z" fill="white"/>
<path d="M30.9478 48.8826C30.4145 51.1759 28.3863 52.6617 26.4147 52.2095C24.4431 51.7573 23.2634 49.5286 23.7967 47.2354C24.33 44.9421 29.0004 40.9612 29.0004 40.9612C29.0004 40.9612 31.473 46.5894 30.9478 48.8826Z" fill="white"/>
<path d="M43.5454 46.1452C43.5117 46.5649 43.388 46.9723 43.1826 47.3399C42.9772 47.7074 42.695 48.0264 42.3552 48.2752C42.0154 48.524 41.626 48.6968 41.2134 48.7817C40.8008 48.8666 40.3747 48.8617 39.9642 48.7674C39.5536 48.673 39.1683 48.4914 38.8343 48.2349C38.5003 47.9784 38.2255 47.6529 38.0286 47.2808C37.8317 46.9086 37.7173 46.4984 37.6933 46.0782C37.6692 45.6579 37.736 45.2374 37.8892 44.8452C38.3013 43.0284 42.0101 39.8792 42.0101 39.8792C42.0101 39.8792 43.9575 44.3203 43.5454 46.1452Z" fill="white"/>
</svg>
