<svg width="60" height="59" viewBox="0 0 60 59" fill="none" xmlns="http://www.w3.org/2000/svg">
<path d="M49.393 12.3668C48.7115 12.367 48.031 12.418 47.3571 12.5194C46.5983 11.0526 45.4436 9.82779 44.024 8.98394C42.6044 8.1401 40.9767 7.71099 39.3256 7.74532C38.9306 7.74641 38.5362 7.77363 38.1448 7.82678C37.8834 5.98026 36.9803 4.28469 35.5939 3.03735C34.2075 1.79 32.4263 1.07048 30.5625 1.00491C28.6987 0.939346 26.8713 1.53193 25.4007 2.67877C23.9301 3.8256 22.9101 5.45351 22.5195 7.27708C21.8558 7.09821 21.1711 7.00919 20.4836 7.01241C18.5079 7.01062 16.6022 7.74464 15.1381 9.07136C13.674 10.3981 12.7564 12.2224 12.5641 14.1889C11.3783 13.5178 10.0382 13.1669 8.67564 13.1709C6.61505 13.2447 4.66345 14.115 3.23176 15.5989C1.80008 17.0827 1 19.0642 1 21.1261C1 23.188 1.80008 25.1695 3.23176 26.6533C4.66345 28.1371 6.61505 29.0075 8.67564 29.0812C9.07129 29.0781 9.46606 29.0441 9.85641 28.9794C10.2353 29.9845 10.8141 30.9023 11.558 31.6772C12.3018 32.452 13.1951 33.0679 14.1838 33.4876C15.1725 33.9073 16.2361 34.122 17.3102 34.1187C18.3843 34.1154 19.4466 33.8942 20.4328 33.4685C23.04 35.7506 26.416 36.9584 29.8792 36.8481C35.1012 36.8481 39.519 34.4559 40.9441 31.1782C41.9158 31.9061 43.0414 32.4014 44.2345 32.6262C45.4275 32.8509 46.6563 32.7991 47.8261 32.4746C48.996 32.1502 50.076 31.5618 50.9829 30.7547C51.8898 29.9476 52.5995 28.9433 53.0575 27.819C57.1293 26.6891 59.9999 23.7473 59.9999 20.3575C60.0304 15.9295 55.2665 12.3668 49.393 12.3668Z" fill="#D9D9D9"/>
<path d="M17.2154 38.4258L10.1306 45.5004L13.1641 48.0045L9.89648 53.8882L17.1035 48.3201L14.0802 45.2968L17.2154 38.4258Z" fill="#FCC54C"/>
<path d="M34.0925 36.8174L24.3203 46.5997L24.3101 46.5895L28.4938 50.0505L23.9844 58.1838L33.95 50.4781L29.7662 46.3045L34.0925 36.8174Z" fill="#FCC54C"/>
<path d="M48.192 38.4258L41.1072 45.5004L44.1406 48.0045L40.873 53.8882L48.08 48.3201L45.0568 45.2968L48.192 38.4258Z" fill="#FCC54C"/>
</svg>
