<svg width="60" height="59" viewBox="0 0 60 59" fill="none" xmlns="http://www.w3.org/2000/svg">
<path d="M48.4092 14.2523C47.7309 14.2574 47.0537 14.3082 46.3823 14.4043C45.6245 12.9465 44.474 11.7298 43.061 10.8917C41.6479 10.0535 40.0286 9.62729 38.386 9.66124C37.9931 9.66415 37.6007 9.68784 37.2104 9.73219C36.9369 7.90981 36.0354 6.24022 34.6617 5.01197C33.2879 3.78372 31.5282 3.07398 29.6867 3.00547C27.8452 2.93695 26.0376 3.51394 24.5764 4.63671C23.1151 5.75948 22.0921 7.35748 21.684 9.1545C21.022 8.98215 20.341 8.89364 19.657 8.89102C17.6905 8.89152 15.7945 9.62307 14.3373 10.9435C12.8801 12.264 11.9658 14.0791 11.7722 16.036C10.7168 15.447 9.54056 15.1076 8.33365 15.0437C7.12674 14.9798 5.92122 15.1932 4.80954 15.6674C3.69786 16.1416 2.70953 16.8641 1.92035 17.7795C1.13117 18.6949 0.562093 19.7788 0.256755 20.9482C-0.0485825 22.1176 -0.0820614 23.3414 0.158866 24.5257C0.399793 25.7101 0.908724 26.8235 1.64666 27.7807C2.3846 28.7378 3.33193 29.5133 4.41602 30.0476C5.5001 30.5819 6.69214 30.8609 7.90074 30.8631C8.29084 30.8587 8.68021 30.8282 9.06624 30.7719C9.44554 31.772 10.0236 32.6849 10.7656 33.4553C11.5075 34.2258 12.3979 34.838 13.383 35.2547C14.3681 35.6715 15.4275 35.8843 16.4971 35.8802C17.5667 35.8762 18.6244 35.6554 19.6063 35.2311C22.1985 37.5095 25.5623 38.7129 29.0114 38.5959C34.2105 38.5959 38.6089 36.2142 40.0278 32.9508C40.9952 33.6755 42.1159 34.1687 43.3037 34.3925C44.4916 34.6162 45.7149 34.5646 46.8796 34.2416C48.0444 33.9186 49.1196 33.3328 50.0225 32.5293C50.9255 31.7257 51.6321 30.7258 52.0881 29.6064C56.142 28.4814 59 25.5525 59 22.1776C59 17.84 54.257 14.2523 48.4092 14.2523Z" fill="#D9D9D9"/>
<path d="M15.9177 45.8421L15.5833 45.5279H15.6846C15.8635 45.4697 16.0124 45.3437 16.0996 45.177C16.1867 45.0103 16.2051 44.8161 16.1508 44.636C16.0908 44.4684 15.9699 44.3296 15.8122 44.247C15.6545 44.1643 15.4715 44.1441 15.2995 44.1901L14.8029 44.3421L14.4178 44.4536L13.4043 43.5618L14.6712 43.1766L14.9549 43.4401L15.4211 43.8658C15.5611 43.9665 15.7329 44.0128 15.9045 43.996C16.0761 43.9792 16.2357 43.9005 16.3535 43.7746C16.4669 43.6438 16.5293 43.4764 16.5293 43.3033C16.5293 43.1302 16.4669 42.9629 16.3535 42.8321L16.2116 42.6902L16.6576 42.5584C16.8364 42.5002 16.9854 42.3742 17.0725 42.2075C17.1596 42.0408 17.178 41.8467 17.1238 41.6666C17.0782 41.4944 16.9695 41.3456 16.8193 41.2498C16.6691 41.154 16.4883 41.1183 16.313 41.1497L15.8671 41.2814V41.1801C15.9097 40.9973 15.8781 40.8052 15.7794 40.6456C15.6806 40.4861 15.5226 40.3721 15.34 40.3288C15.1548 40.289 14.9614 40.3227 14.8006 40.423C14.6398 40.5232 14.5244 40.6821 14.4786 40.8659L14.3671 41.3727L14.2759 41.7679L13.0192 42.1632L13.3131 40.8761L13.6881 40.7544L14.286 40.572C14.4501 40.5041 14.5826 40.3772 14.6576 40.2163C14.7326 40.0554 14.7446 39.8722 14.6911 39.7029C14.6377 39.5336 14.5227 39.3906 14.3689 39.3019C14.2151 39.2133 14.0337 39.1855 13.8604 39.2241L13.6779 39.2849L13.7793 38.839C13.8191 38.6537 13.7853 38.4603 13.6851 38.2995C13.5849 38.1387 13.426 38.0233 13.2422 37.9775C13.0568 37.9383 12.8634 37.9737 12.704 38.0762C12.5446 38.1787 12.4321 38.3399 12.3909 38.5248L12.2895 38.9707L12.2084 38.8998C12.0705 38.7847 11.8945 38.7255 11.7151 38.7336C11.5357 38.7417 11.3658 38.8166 11.2388 38.9436C11.1118 39.0706 11.0368 39.2405 11.0287 39.4199C11.0206 39.5994 11.0799 39.7753 11.1949 39.9132L11.5801 40.2578L11.874 40.5315L11.5801 41.8287L10.5666 40.9267L10.6578 40.5416L10.7896 39.9335C10.8031 39.7638 10.7552 39.5948 10.6545 39.4575C10.5539 39.3201 10.4071 39.2236 10.2412 39.1855C10.0752 39.1474 9.90105 39.1702 9.75054 39.2499C9.60003 39.3295 9.4832 39.4607 9.42137 39.6193V39.8119L9.07679 39.4977C9.01074 39.4303 8.9319 39.3768 8.84489 39.3402C8.75788 39.3036 8.66444 39.2848 8.57006 39.2848C8.47567 39.2848 8.38224 39.3036 8.29522 39.3402C8.20821 39.3768 8.12937 39.4303 8.06332 39.4977C7.92964 39.6325 7.85463 39.8146 7.85463 40.0045C7.85463 40.1943 7.92964 40.3764 8.06332 40.5112L8.39777 40.8254H8.29641C8.20724 40.8533 8.12446 40.8986 8.05277 40.9585C7.98109 41.0185 7.9219 41.0919 7.87861 41.1747C7.83532 41.2576 7.80876 41.3481 7.80046 41.4412C7.79215 41.5343 7.80228 41.6281 7.83023 41.7172C7.85818 41.8064 7.90341 41.8892 7.96336 41.9609C8.02331 42.0326 8.09678 42.0918 8.1796 42.135C8.26241 42.1783 8.35294 42.2049 8.44602 42.2132C8.5391 42.2215 8.6329 42.2114 8.72207 42.1834L9.21868 42.0314L9.6038 41.9098L10.6173 42.8118L9.35043 43.1969L9.06666 42.9233L8.61059 42.5077C8.47619 42.3733 8.29392 42.2979 8.10385 42.2979C7.91379 42.2979 7.73151 42.3733 7.59712 42.5077C7.46272 42.6421 7.38722 42.8244 7.38722 43.0145C7.38722 43.2045 7.46272 43.3868 7.59712 43.5212L7.739 43.653L7.30322 43.7948C7.21335 43.8203 7.12951 43.8636 7.05664 43.9221C6.98377 43.9805 6.92335 44.053 6.87895 44.1352C6.83455 44.2174 6.80708 44.3076 6.79814 44.4006C6.78919 44.4936 6.79896 44.5874 6.82688 44.6766C6.88304 44.8573 7.00812 45.0086 7.17505 45.0978C7.34198 45.1869 7.53732 45.2067 7.71874 45.1529L8.16467 45.011V45.1124C8.14229 45.2036 8.13853 45.2984 8.1536 45.3912C8.16868 45.4839 8.20228 45.5726 8.25242 45.6521C8.30255 45.7316 8.36819 45.8001 8.4454 45.8536C8.52261 45.9072 8.60982 45.9446 8.70181 45.9637C8.793 45.9846 8.88741 45.9874 8.97965 45.9717C9.07188 45.956 9.1601 45.9222 9.23923 45.8723C9.31836 45.8223 9.38683 45.7572 9.4407 45.6807C9.49457 45.6042 9.53278 45.5179 9.55313 45.4265L9.66461 44.9198L9.75582 44.5245L11.0125 44.1394L10.7288 45.4265L10.3436 45.5482L9.74569 45.7306C9.58703 45.802 9.46015 45.9292 9.38914 46.088C9.31814 46.2468 9.30796 46.4262 9.36056 46.592C9.41018 46.7578 9.51949 46.8993 9.66738 46.9892C9.81526 47.079 9.99121 47.1108 10.1612 47.0785L10.3538 47.0177L10.2423 47.4737C10.2186 47.652 10.2625 47.8326 10.3653 47.98C10.4682 48.1275 10.6225 48.2312 10.7979 48.2706C10.9733 48.31 11.1571 48.2823 11.3131 48.193C11.4691 48.1036 11.5861 47.9591 11.6409 47.7879L11.7422 47.3319L11.8132 47.4028C11.9479 47.5365 12.1301 47.6115 12.3199 47.6115C12.5097 47.6115 12.6919 47.5365 12.8266 47.4028C12.9579 47.2668 13.0313 47.0851 13.0313 46.8961C13.0313 46.707 12.9579 46.5254 12.8266 46.3894L12.4415 46.0346L12.1476 45.761L12.4415 44.4739L13.4043 45.3759L13.3131 45.761L13.1814 46.3691C13.1673 46.5416 13.2159 46.7135 13.3183 46.8531C13.4207 46.9927 13.57 47.0907 13.7388 47.1292C13.9065 47.1691 14.0831 47.1457 14.2346 47.0634C14.3861 46.9811 14.5019 46.8457 14.5597 46.6832V46.4907L14.9043 46.8048C14.9703 46.8723 15.0491 46.9258 15.1362 46.9624C15.2232 46.999 15.3166 47.0178 15.411 47.0178C15.5054 47.0178 15.5988 46.999 15.6858 46.9624C15.7728 46.9258 15.8517 46.8723 15.9177 46.8048C16.0411 46.6749 16.1098 46.5026 16.1098 46.3235C16.1098 46.1443 16.0411 45.972 15.9177 45.8421Z" fill="#60B0FF"/>
<path d="M48.1758 45.7104L47.8414 45.3962H47.9326C48.0323 45.378 48.127 45.3388 48.2105 45.2813C48.294 45.2239 48.3645 45.1495 48.4172 45.0629C48.47 44.9763 48.5038 44.8796 48.5166 44.7791C48.5293 44.6785 48.5207 44.5764 48.4912 44.4794C48.4618 44.3824 48.4122 44.2927 48.3456 44.2163C48.2791 44.1398 48.1972 44.0782 48.1052 44.0356C48.0133 43.993 47.9133 43.9703 47.812 43.969C47.7106 43.9677 47.6101 43.9878 47.5171 44.0281L47.0205 44.1801L46.6354 44.3017L45.6219 43.4099L46.8887 43.0146L47.1827 43.2882L47.6286 43.7139C47.7685 43.8146 47.9404 43.8608 48.112 43.8441C48.2836 43.8273 48.4432 43.7486 48.561 43.6227C48.6744 43.4918 48.7368 43.3245 48.7368 43.1514C48.7368 42.9783 48.6744 42.811 48.561 42.6802L48.4191 42.5484L48.8549 42.4166C48.9546 42.3983 49.0493 42.3592 49.1328 42.3017C49.2163 42.2443 49.2867 42.1698 49.3395 42.0833C49.3922 41.9967 49.4261 41.9 49.4388 41.7995C49.4516 41.6989 49.443 41.5968 49.4135 41.4998C49.3841 41.4028 49.3344 41.3131 49.2679 41.2366C49.2014 41.1602 49.1195 41.0986 49.0275 41.056C48.9355 41.0134 48.8356 40.9907 48.7342 40.9894C48.6329 40.9881 48.5324 41.0082 48.4393 41.0484L47.9934 41.1903V41.089C48.036 40.9062 48.0045 40.7141 47.9057 40.5545C47.8069 40.395 47.649 40.281 47.4664 40.2377C47.281 40.1951 47.0863 40.2278 46.9248 40.3284C46.7634 40.4291 46.6484 40.5896 46.605 40.7748L46.4935 41.2816L46.4023 41.6768L45.1456 42.0619L45.4293 40.7748L45.8145 40.6633L46.4124 40.4809C46.5729 40.4116 46.7022 40.2855 46.7754 40.1267C46.8487 39.9679 46.8607 39.7877 46.8092 39.6206C46.7576 39.4535 46.6463 39.3113 46.4963 39.2213C46.3464 39.1313 46.1686 39.0999 45.9969 39.133L45.8043 39.1938L45.9057 38.7377C45.9483 38.555 45.9167 38.3628 45.818 38.2033C45.7192 38.0437 45.5612 37.9298 45.3787 37.8864C45.1934 37.8466 45 37.8804 44.8392 37.9806C44.6784 38.0809 44.563 38.2397 44.5172 38.4236L44.426 38.8796L44.3449 38.8087C44.2784 38.7421 44.1994 38.6893 44.1124 38.6533C44.0255 38.6173 43.9323 38.5988 43.8382 38.5988C43.7441 38.5988 43.6509 38.6173 43.5639 38.6533C43.477 38.6893 43.398 38.7421 43.3315 38.8087C43.2649 38.8752 43.2121 38.9542 43.1761 39.0412C43.1401 39.1281 43.1216 39.2213 43.1216 39.3154C43.1216 39.4095 43.1401 39.5027 43.1761 39.5897C43.2121 39.6766 43.2649 39.7556 43.3315 39.8222L43.7166 40.1769L44.0105 40.4505L43.7166 41.7376L42.7538 40.8458L42.8348 40.4505L42.9767 39.8526C42.9903 39.6828 42.9424 39.5138 42.8417 39.3765C42.741 39.2392 42.5943 39.1426 42.4283 39.1045C42.2624 39.0664 42.0882 39.0893 41.9377 39.1689C41.7872 39.2486 41.6704 39.3797 41.6086 39.5384V39.7208L41.264 39.4066C41.1979 39.3392 41.1191 39.2857 41.0321 39.2491C40.945 39.2125 40.8516 39.1937 40.7572 39.1937C40.6628 39.1937 40.5694 39.2125 40.4824 39.2491C40.3954 39.2857 40.3165 39.3392 40.2505 39.4066C40.1818 39.4719 40.1271 39.5506 40.0898 39.6377C40.0524 39.7248 40.0331 39.8186 40.0331 39.9134C40.0331 40.0082 40.0524 40.1019 40.0898 40.1891C40.1271 40.2762 40.1818 40.3548 40.2505 40.4201L40.5849 40.7343H40.4937C40.3315 40.8044 40.2008 40.9318 40.1265 41.0922C40.0522 41.2526 40.0395 41.4347 40.0909 41.6038C40.1422 41.773 40.254 41.9172 40.405 42.0092C40.5559 42.1012 40.7354 42.1344 40.9093 42.1025L41.4058 41.9504L41.791 41.8288L42.8044 42.7207L41.6491 43.1767L41.3552 42.9031L40.9093 42.4876C40.7702 42.395 40.6029 42.3544 40.4369 42.373C40.2708 42.3916 40.1167 42.4682 40.0016 42.5894C39.8865 42.7105 39.8179 42.8684 39.8078 43.0352C39.7977 43.2019 39.8468 43.3669 39.9465 43.5011L40.0883 43.6429L39.6525 43.7747C39.4718 43.8308 39.3205 43.9559 39.2313 44.1229C39.1422 44.2898 39.1224 44.4851 39.1762 44.6665C39.2324 44.8473 39.3574 44.9986 39.5244 45.0878C39.6913 45.1769 39.8866 45.1967 40.0681 45.1429L40.514 45.001V45.1023C40.4915 45.1929 40.4873 45.287 40.5018 45.3792C40.5162 45.4714 40.549 45.5597 40.5981 45.6391C40.6472 45.7184 40.7117 45.7871 40.7877 45.8411C40.8638 45.8952 40.9499 45.9334 41.041 45.9536C41.2264 45.9962 41.4212 45.9636 41.5826 45.8629C41.744 45.7622 41.859 45.6017 41.9025 45.4165L42.0139 44.9098L42.1051 44.5145L43.3619 44.1294L43.0679 45.4165L42.693 45.528L42.095 45.7206C41.9364 45.792 41.8095 45.9192 41.7385 46.078C41.6675 46.2368 41.6573 46.4162 41.7099 46.582C41.7595 46.7478 41.8688 46.8893 42.0167 46.9791C42.1646 47.069 42.3406 47.1008 42.5105 47.0685L42.693 47.0077L42.5916 47.4637C42.5521 47.6477 42.5861 47.8398 42.6865 47.9989C42.7869 48.1581 42.9457 48.2716 43.1288 48.3151C43.22 48.3374 43.3148 48.3412 43.4076 48.3261C43.5003 48.3111 43.589 48.2774 43.6685 48.2273C43.748 48.1772 43.8165 48.1115 43.87 48.0343C43.9236 47.9571 43.961 47.8699 43.9801 47.7779L44.0916 47.3218L44.1625 47.3928C44.2285 47.4602 44.3074 47.5137 44.3944 47.5503C44.4814 47.5869 44.5748 47.6057 44.6692 47.6057C44.7636 47.6057 44.857 47.5869 44.9441 47.5503C45.0311 47.5137 45.1099 47.4602 45.176 47.3928C45.3096 47.258 45.3847 47.0759 45.3847 46.8861C45.3847 46.6962 45.3096 46.5141 45.176 46.3793L44.7807 46.0246L44.4868 45.751L44.7807 44.4638L45.7942 45.3658L45.703 45.751L45.5712 46.3591C45.5523 46.531 45.5977 46.7039 45.6988 46.8443C45.7999 46.9847 45.9494 47.0826 46.1185 47.1192C46.2861 47.1568 46.4617 47.1324 46.6127 47.0504C46.7637 46.9684 46.8798 46.8344 46.9394 46.6732V46.4807L47.284 46.7948C47.35 46.8623 47.4289 46.9158 47.5159 46.9524C47.6029 46.9889 47.6963 47.0078 47.7907 47.0078C47.8851 47.0078 47.9785 46.9889 48.0656 46.9524C48.1526 46.9158 48.2314 46.8623 48.2975 46.7948C48.3714 46.7206 48.4277 46.6307 48.4622 46.5318C48.4967 46.4329 48.5086 46.3275 48.4969 46.2234C48.4852 46.1193 48.4503 46.0192 48.3947 45.9304C48.3392 45.8416 48.2644 45.7664 48.1758 45.7104Z" fill="#60B0FF"/>
<path d="M33.7436 51.8116L33.2774 51.3657H33.4091C33.5612 51.3543 33.7088 51.3088 33.8409 51.2324C33.973 51.1561 34.0861 51.0509 34.1719 50.9248C34.2576 50.7986 34.3138 50.6547 34.3362 50.5038C34.3586 50.3529 34.3466 50.1989 34.3012 50.0533C34.2558 49.9077 34.1781 49.7742 34.0739 49.6628C33.9697 49.5513 33.8417 49.4649 33.6995 49.4098C33.5572 49.3548 33.4043 49.3326 33.2523 49.3448C33.1002 49.3571 32.9529 49.4035 32.8213 49.4806L32.1321 49.6934L31.595 49.8556L30.2572 48.6192L32.0004 48.0719L32.4159 48.4469L33.0443 49.0347C33.241 49.1396 33.4669 49.1767 33.6868 49.1402C33.9068 49.1038 34.1086 48.9958 34.261 48.833C34.4133 48.6703 34.5078 48.4618 34.5297 48.2399C34.5516 48.018 34.4997 47.7951 34.3821 47.6057L34.1794 47.4233L34.7976 47.2307C34.9497 47.2194 35.0973 47.1738 35.2294 47.0975C35.3614 47.0211 35.4746 46.9159 35.5603 46.7898C35.6461 46.6636 35.7022 46.5198 35.7247 46.3689C35.7471 46.218 35.7351 46.064 35.6897 45.9183C35.6443 45.7727 35.5666 45.6392 35.4624 45.5278C35.3582 45.4164 35.2302 45.3299 35.0879 45.2749C34.9457 45.2198 34.7928 45.1976 34.6408 45.2099C34.4887 45.2221 34.3414 45.2685 34.2098 45.3457L33.6017 45.5281V45.3963C33.6682 45.259 33.7028 45.1084 33.703 44.9558C33.7032 44.8032 33.6689 44.6525 33.6027 44.515C33.5365 44.3775 33.4401 44.2568 33.3208 44.1617C33.2014 44.0667 33.0621 43.9998 32.9132 43.9661C32.7644 43.9324 32.6099 43.9328 32.4612 43.9672C32.3125 44.0015 32.1735 44.0691 32.0546 44.1647C31.9357 44.2603 31.8399 44.3815 31.7743 44.5193C31.7088 44.6571 31.6752 44.8079 31.6761 44.9605L31.5139 45.6598L31.3923 46.2071L29.639 46.7442L30.0444 44.9605L30.5815 44.7984L31.4024 44.545C31.5884 44.4251 31.73 44.2476 31.8056 44.0397C31.8812 43.8317 31.8867 43.6047 31.8212 43.3934C31.7558 43.182 31.6229 42.9979 31.443 42.8691C31.2631 42.7404 31.0459 42.674 30.8248 42.6802L30.5613 42.7613L30.7031 42.1329C30.7697 41.9956 30.8043 41.845 30.8045 41.6924C30.8047 41.5398 30.7704 41.3892 30.7042 41.2517C30.638 41.1142 30.5416 40.9934 30.4222 40.8983C30.3028 40.8033 30.1635 40.7364 30.0147 40.7027C29.8659 40.6691 29.7114 40.6694 29.5627 40.7038C29.414 40.7382 29.275 40.8057 29.1561 40.9013C29.0371 40.9969 28.9413 41.1181 28.8758 41.2559C28.8102 41.3937 28.7767 41.5446 28.7776 41.6972L28.6357 42.3255L28.5343 42.2241C28.4482 42.0993 28.3351 41.9955 28.2035 41.9202C28.0718 41.8448 27.9249 41.8 27.7737 41.789C27.6224 41.7781 27.4706 41.8012 27.3295 41.8567C27.1883 41.9121 27.0614 41.9986 26.9581 42.1097C26.8549 42.2207 26.7778 42.3535 26.7327 42.4983C26.6875 42.6431 26.6755 42.7962 26.6974 42.9462C26.7193 43.0963 26.7746 43.2396 26.8592 43.3654C26.9439 43.4913 27.0557 43.5965 27.1864 43.6734L27.7235 44.17L28.1289 44.545L27.7235 46.3388L26.4466 45.0011L26.5682 44.4639L26.7506 43.6227C26.7579 43.3926 26.6866 43.1668 26.5484 42.9826C26.4103 42.7984 26.2135 42.6667 25.9905 42.6093C25.7574 42.5615 25.5149 42.5973 25.3055 42.7103C25.0962 42.8233 24.9332 43.0064 24.8453 43.2275L24.7946 43.491L24.3183 43.0552C24.1193 42.9382 23.8864 42.8926 23.658 42.9259C23.4297 42.9592 23.2195 43.0695 23.0623 43.2385C22.9051 43.4075 22.8103 43.6251 22.7936 43.8553C22.7769 44.0855 22.8393 44.3145 22.9704 44.5045L23.4467 44.9402L23.3048 44.9909C23.0588 45.0746 22.8543 45.2495 22.7336 45.4796C22.6129 45.7097 22.5852 45.9774 22.6562 46.2274C22.7398 46.4734 22.9148 46.6779 23.1449 46.7986C23.375 46.9193 23.6427 46.947 23.8926 46.876L24.5919 46.6632L25.1189 46.4909L26.4668 47.7374L24.7135 48.2847L24.3081 47.8996L23.6798 47.3219C23.4822 47.2182 23.256 47.1825 23.0361 47.2205C22.8162 47.2585 22.615 47.368 22.4637 47.532C22.3124 47.696 22.2194 47.9053 22.1993 48.1276C22.1791 48.3498 22.2328 48.5725 22.3521 48.7611L22.5548 48.9435L21.9366 49.136C21.739 49.2518 21.5865 49.4311 21.5038 49.6447C21.4212 49.8582 21.4133 50.0935 21.4815 50.3121C21.5497 50.5308 21.6899 50.7198 21.8793 50.8486C22.0686 50.9773 22.2961 51.0381 22.5244 51.0211L23.1325 50.8285V50.9704C23.066 51.1078 23.0314 51.2583 23.0312 51.4109C23.031 51.5635 23.0653 51.7142 23.1315 51.8517C23.1977 51.9892 23.294 52.11 23.4134 52.205C23.5328 52.3001 23.6721 52.3669 23.8209 52.4006C23.9698 52.4343 24.1243 52.434 24.273 52.3996C24.4216 52.3652 24.5606 52.2977 24.6796 52.2021C24.7985 52.1065 24.8943 51.9852 24.9599 51.8474C25.0254 51.7096 25.059 51.5588 25.0581 51.4062L25.2203 50.6968L25.3419 50.1597L27.0952 49.6124L26.6898 51.4062L26.1628 51.5684L25.3419 51.8217C25.1559 51.9417 25.0143 52.1191 24.9387 52.3271C24.8631 52.535 24.8576 52.762 24.9231 52.9733C24.9885 53.1847 25.1214 53.3688 25.3013 53.4976C25.4812 53.6264 25.6984 53.6927 25.9196 53.6865L26.1831 53.6055L26.0412 54.2338C25.9747 54.3711 25.94 54.5217 25.9398 54.6743C25.9397 54.8269 25.9739 54.9776 26.0401 55.1151C26.1063 55.2526 26.2027 55.3734 26.3221 55.4684C26.4415 55.5635 26.5808 55.6303 26.7296 55.664C26.8784 55.6977 27.033 55.6973 27.1816 55.663C27.3303 55.6286 27.4693 55.561 27.5882 55.4654C27.7072 55.3698 27.803 55.2486 27.8685 55.1108C27.9341 54.973 27.9677 54.8222 27.9668 54.6696L28.1087 54.0412L28.2201 54.1426C28.4145 54.3126 28.6664 54.402 28.9244 54.3926C29.1825 54.3832 29.4272 54.2756 29.6086 54.0919C29.7883 53.9034 29.8885 53.653 29.8885 53.3926C29.8885 53.1322 29.7883 52.8818 29.6086 52.6933L29.0715 52.1967L28.6661 51.8217L29.0715 50.038L30.4194 51.2846L30.2978 51.8217L30.1052 52.6629C30.1148 52.8847 30.197 53.0972 30.3391 53.2678C30.4812 53.4384 30.6753 53.5576 30.8917 53.6071C31.1082 53.6566 31.3348 53.6336 31.537 53.5418C31.7391 53.4499 31.9055 53.2943 32.0105 53.0987L32.0713 52.8352L32.5477 53.271C32.7465 53.3829 32.9772 53.4245 33.2026 53.389C33.428 53.3534 33.6348 53.2429 33.7895 53.0753C33.9443 52.9076 34.0379 52.6927 34.0554 52.4652C34.0728 52.2377 34.0129 52.011 33.8854 51.8217L33.7436 51.8116Z" fill="#60B0FF"/>
</svg>
