<svg width="60" height="59" viewBox="0 0 60 59" fill="none" xmlns="http://www.w3.org/2000/svg">
<path d="M49.4185 16.2455C48.7333 16.2484 48.0491 16.2986 47.3708 16.396C46.6128 14.9381 45.4619 13.7216 44.0482 12.884C42.6346 12.0465 41.0147 11.6214 39.372 11.6569C38.9809 11.6606 38.5902 11.6857 38.2019 11.7321C37.928 9.90956 37.0262 8.23991 35.6521 7.01169C34.2779 5.78347 32.518 5.07385 30.6762 5.00545C28.8345 4.93705 27.0267 5.51418 25.5653 6.63709C24.1039 7.76001 23.0806 9.35818 22.6724 11.1554C22.0235 10.9812 21.3549 10.8913 20.6831 10.8879C18.7168 10.8888 16.8211 11.6208 15.3645 12.9415C13.9078 14.2622 12.9942 16.0774 12.8014 18.0342C11.7461 17.4394 10.5684 17.0949 9.359 17.0269C8.1496 16.959 6.94074 17.1696 5.82553 17.6424C4.71031 18.1153 3.7185 18.8377 2.92647 19.7542C2.13443 20.6707 1.56332 21.7568 1.2571 22.9287C0.950878 24.1007 0.917728 25.3273 1.1602 26.5141C1.40267 27.7009 1.9143 28.8162 2.65567 29.7741C3.39705 30.7321 4.34839 31.5071 5.43644 32.0395C6.52449 32.5718 7.72021 32.8474 8.93152 32.8449C9.32333 32.844 9.71451 32.8133 10.1017 32.7529C10.4816 33.7516 11.0597 34.6631 11.801 35.4326C12.5423 36.2021 13.4316 36.8137 14.4154 37.2306C15.3992 37.6476 16.4572 37.8612 17.5257 37.8588C18.5942 37.8563 19.6511 37.6377 20.633 37.2162C22.7142 39.2472 26.1494 40.5595 30.0359 40.5595C35.2347 40.5595 39.6228 38.1858 41.0436 34.9177C42.0104 35.6422 43.1304 36.1352 44.3176 36.359C45.5048 36.5827 46.7274 36.5311 47.8916 36.2082C49.0557 35.8853 50.1302 35.2996 51.0325 34.4963C51.9348 33.693 52.6408 32.6934 53.0961 31.5744C57.1331 30.4544 60 27.5541 60 24.1524C60 19.7978 55.2693 16.2455 49.4185 16.2455Z" fill="#D9D9D9"/>
<path d="M18.6599 47.7643C18.526 48.6162 18.0608 49.3807 17.3657 49.8911C16.6705 50.4015 15.8018 50.6164 14.9489 50.4891C13.3274 50.1213 12.3746 48.2992 12.8008 46.4186C13.2271 44.538 17.0719 41.2783 17.0719 41.2783C17.0719 41.2783 19.0862 45.8753 18.6599 47.7643Z" fill="#60B0FF"/>
<path d="M32.5511 50.5978C31.9995 52.9716 29.9016 54.5095 27.8622 54.0414C25.8228 53.5733 24.6025 51.2665 25.1541 48.8928C25.7058 46.519 30.5368 42.3984 30.5368 42.3984C30.5368 42.3984 33.0944 48.2241 32.5511 50.5978Z" fill="#60B0FF"/>
<path d="M45.5818 47.7643C45.5469 48.1986 45.4189 48.6204 45.2065 49.0008C44.994 49.3813 44.7021 49.7115 44.3506 49.969C43.9991 50.2265 43.5963 50.4053 43.1695 50.4932C42.7427 50.5811 42.302 50.5761 41.8774 50.4784C41.4527 50.3807 41.0541 50.1928 40.7086 49.9272C40.3631 49.6617 40.0789 49.3249 39.8752 48.9396C39.6716 48.5544 39.5533 48.1299 39.5284 47.6948C39.5035 47.2598 39.5726 46.8245 39.731 46.4186C40.1573 44.538 43.9937 41.2783 43.9937 41.2783C43.9937 41.2783 46.008 45.8753 45.5818 47.7643Z" fill="#60B0FF"/>
</svg>
