<svg width="60" height="59" viewBox="0 0 60 59" fill="none" xmlns="http://www.w3.org/2000/svg">
<path d="M18.6158 37.6289L12.246 43.9988L14.9681 46.2443L12.0352 51.551L18.5242 46.5284L15.7929 43.8063L18.6158 37.6289Z" fill="#FCC54C"/>
<path d="M33.8199 36.1807L25.012 44.9794L28.779 48.0956L24.7188 55.4186L33.6824 48.4805L29.9246 44.7227L33.8199 36.1807Z" fill="#FCC54C"/>
<path d="M46.5045 37.6289L40.1346 43.9988L42.8567 46.2443L39.9238 51.551L46.4037 46.5284L43.6816 43.8063L46.5045 37.6289Z" fill="#FCC54C"/>
<path d="M25.5442 26.3831C25.4356 25.6524 25.1537 24.9584 24.722 24.359C24.2903 23.7595 23.7215 23.2721 23.0629 22.9374C22.4044 22.6028 21.6753 22.4306 20.9366 22.4353C20.198 22.44 19.4711 22.6215 18.8169 22.9645C18.6198 21.6257 17.9602 20.3981 16.9526 19.4949C15.9449 18.5916 14.6529 18.0697 13.3006 18.0196C11.9483 17.9695 10.6211 18.3945 9.54946 19.2207C8.47777 20.0469 7.72917 21.2223 7.43359 22.5428C6.95596 22.4105 6.46276 22.3427 5.96713 22.3412C5.27003 22.3103 4.57469 22.4332 3.93039 22.7012C3.2861 22.9691 2.70863 23.3755 2.23895 23.8915C1.76926 24.4076 1.41885 25.0206 1.21258 25.6872C1.00631 26.3538 0.949229 27.0576 1.04537 27.7488C2.42933 35.5851 26.3874 35.4109 25.5442 26.3831Z" fill="#D9D9D9"/>
<path d="M47.7155 19.5642C41.6206 19.5642 35.0949 17.5112 34.2884 12.9286C34.1405 12.1201 34.1757 11.2888 34.3914 10.4957C34.6071 9.70267 34.9979 8.96806 35.5349 8.3459C35.8018 8.00409 36.1096 7.69628 36.4514 7.42937C35.8728 6.02607 34.863 4.84303 33.568 4.05118C32.273 3.25932 30.7597 2.89965 29.2469 3.02411C27.7341 3.14856 26.3 3.75071 25.1518 4.74355C24.0036 5.7364 23.2008 7.06854 22.8592 8.54754C22.2616 8.38649 21.6451 8.30633 21.0262 8.30923C19.2559 8.30875 17.5483 8.96426 16.2331 10.1491C14.9179 11.334 14.0884 12.9642 13.9048 14.7249C12.8142 14.1144 11.583 13.7997 10.3332 13.812C9.08349 13.8242 7.85867 14.1631 6.78033 14.7949C5.70199 15.4267 4.80763 16.3295 4.18595 17.4137C3.56427 18.4979 3.23689 19.7259 3.23633 20.9757C3.23633 21.2048 3.23633 21.4248 3.23633 21.6539C4.07437 21.2756 4.98395 21.0818 5.90343 21.0857H6.53584C7.07355 19.7857 7.9894 18.6773 9.16463 17.904C10.3399 17.1308 11.7203 16.7285 13.1269 16.7493C14.5335 16.77 15.9015 17.2129 17.0534 18.0204C18.2053 18.8279 19.0881 19.9629 19.5873 21.2781C19.9994 21.1857 20.4205 21.1396 20.8429 21.1407C22.2932 21.0936 23.7085 21.5917 24.8096 22.5367C25.9107 23.4817 26.6177 24.8051 26.7912 26.2457C26.8705 27.0609 26.7741 27.8835 26.5084 28.6583C26.2428 29.433 25.8142 30.1417 25.2514 30.7367C24.3474 31.6774 23.2624 32.4256 22.0619 32.9364C24.274 34.4277 26.8916 35.2021 29.5591 35.1544C34.2609 35.1544 38.2387 32.9914 39.5218 30.0402C40.7539 30.9718 42.2573 31.474 43.802 31.47C45.2243 31.4709 46.6146 31.0476 47.795 30.2541C48.9755 29.4606 49.8924 28.3331 50.4285 27.0156C54.0946 26.0074 56.6701 23.3495 56.6701 20.2975C56.6678 19.5163 56.499 18.7445 56.1751 18.0336C53.4834 19.0953 50.6086 19.6154 47.7155 19.5642Z" fill="#D9D9D9"/>
<path d="M59.9773 11.3523C59.868 10.6218 59.5859 9.92805 59.1543 9.32867C58.7227 8.72928 58.1543 8.24164 57.4962 7.90632C56.8381 7.571 56.1094 7.39771 55.3709 7.40087C54.6323 7.40403 53.9052 7.58354 53.25 7.92447C53.0427 6.59347 52.3787 5.37608 51.3719 4.48113C50.3651 3.58619 49.0783 3.06946 47.7322 3.0196C46.3861 2.96975 45.0645 3.38988 43.9943 4.20789C42.9241 5.02591 42.1719 6.19083 41.8667 7.50285C41.3877 7.37803 40.8951 7.31338 40.4002 7.31038C39.7027 7.27789 39.0065 7.39967 38.3615 7.66703C37.7164 7.9344 37.1382 8.34078 36.6682 8.8572C36.1982 9.37362 35.8478 9.98738 35.6422 10.6547C35.4365 11.322 35.3806 12.0265 35.4785 12.7179C36.8716 20.5451 60.8205 20.3343 59.9773 11.3523Z" fill="#D9D9D9"/>
</svg>
