<svg width="59" height="57" viewBox="0 0 59 57" fill="none" xmlns="http://www.w3.org/2000/svg">
<path d="M17.162 44.0043L16.8608 43.7209H16.9405C17.098 43.6728 17.2298 43.5641 17.3071 43.4188C17.3844 43.2735 17.4007 43.1035 17.3525 42.9461C17.3044 42.7888 17.1956 42.657 17.0502 42.5798C16.9048 42.5026 16.7347 42.4863 16.5772 42.5344L16.143 42.6672L15.8063 42.7735L14.9203 41.9854L16.0279 41.6489L16.2848 41.888L16.6836 42.2511C16.8051 42.332 16.9514 42.3674 17.0966 42.3512C17.2417 42.3349 17.3765 42.2679 17.4771 42.1621C17.5777 42.0563 17.6377 41.9183 17.6465 41.7726C17.6554 41.6269 17.6124 41.4828 17.5253 41.3656L17.4013 41.2505L17.7912 41.1354C17.9475 41.0845 18.0777 40.9744 18.1539 40.8288C18.2301 40.6831 18.2462 40.5135 18.1987 40.3561C18.1755 40.2773 18.1367 40.2039 18.0847 40.1401C18.0328 40.0764 17.9686 40.0236 17.8961 39.9849C17.8235 39.9461 17.7439 39.9222 17.662 39.9145C17.5801 39.9068 17.4975 39.9155 17.419 39.94L17.0291 40.0639V39.9754C17.0474 39.8957 17.0498 39.8132 17.0361 39.7326C17.0224 39.652 16.9928 39.575 16.9492 39.5058C16.9055 39.4367 16.8486 39.3769 16.7818 39.3298C16.7149 39.2828 16.6393 39.2494 16.5595 39.2316C16.3974 39.1944 16.2271 39.2229 16.086 39.3109C15.9448 39.3988 15.8443 39.5391 15.8063 39.7009L15.7089 40.1436L15.6291 40.489L14.5658 40.7989L14.8228 39.6743L15.1506 39.5769L15.6734 39.4087C15.8093 39.3433 15.9171 39.2314 15.9772 39.0932C16.0374 38.9551 16.0459 38.7999 16.0013 38.656C15.958 38.513 15.8638 38.3907 15.7364 38.3124C15.6091 38.2341 15.4574 38.2051 15.3101 38.231L15.1506 38.2841L15.2393 37.8857C15.2576 37.806 15.2599 37.7235 15.2462 37.6429C15.2325 37.5623 15.203 37.4852 15.1593 37.4161C15.1157 37.347 15.0588 37.2872 14.9919 37.2401C14.925 37.193 14.8495 37.1596 14.7696 37.1419C14.6899 37.1223 14.6069 37.119 14.5259 37.1322C14.4448 37.1454 14.3672 37.1747 14.2977 37.2185C14.2282 37.2623 14.1683 37.3197 14.1215 37.3871C14.0747 37.4546 14.042 37.5308 14.0253 37.6112L13.9367 38.0096L13.8658 37.9476C13.7483 37.8302 13.589 37.7643 13.4228 37.7643C13.2566 37.7643 13.0972 37.8302 12.9797 37.9476C12.8622 38.0651 12.7962 38.2243 12.7962 38.3904C12.7962 38.5564 12.8622 38.7157 12.9797 38.8331L13.3165 39.143L13.5734 39.3821L13.3165 40.5067L12.4304 39.7186L12.5101 39.3821L12.6253 38.8508C12.6468 38.6971 12.6097 38.5409 12.5215 38.4132C12.4333 38.2854 12.3003 38.1954 12.1489 38.1609C11.9974 38.1264 11.8385 38.1499 11.7036 38.2268C11.5687 38.3038 11.4676 38.4285 11.4203 38.5763V38.7446L11.119 38.4701C11.065 38.3975 10.9959 38.3376 10.9164 38.2946C10.8368 38.2516 10.7488 38.2265 10.6586 38.221C10.5683 38.2155 10.4779 38.2299 10.3937 38.263C10.3096 38.2961 10.2337 38.3473 10.1714 38.4128C10.1091 38.4783 10.0619 38.5567 10.0331 38.6423C10.0043 38.728 9.99463 38.819 10.0047 38.9088C10.0148 38.9986 10.0444 39.0851 10.0915 39.1623C10.1386 39.2395 10.202 39.3054 10.2772 39.3555L10.5696 39.63H10.4899C10.3319 39.6791 10.1996 39.7884 10.1216 39.9342C10.0437 40.0801 10.0264 40.2508 10.0734 40.4093C10.0976 40.4873 10.1371 40.5598 10.1894 40.6226C10.2418 40.6853 10.3061 40.7372 10.3785 40.775C10.451 40.8129 10.5302 40.836 10.6117 40.8432C10.6932 40.8503 10.7752 40.8413 10.8532 40.8166L11.2962 40.6838L11.6241 40.5775L12.5101 41.3656L11.4025 41.7109L11.1544 41.4718L10.7557 41.0999C10.634 41.0244 10.4899 40.9933 10.3479 41.0119C10.2059 41.0305 10.0746 41.0977 9.97653 41.202C9.87842 41.3063 9.81946 41.4413 9.80966 41.5841C9.79986 41.7269 9.83985 41.8687 9.9228 41.9854L10.0468 42.1094L9.66583 42.2245C9.58693 42.2478 9.51345 42.2865 9.44967 42.3384C9.38589 42.3904 9.33307 42.4544 9.29432 42.5269C9.25556 42.5995 9.23165 42.679 9.22393 42.7608C9.21621 42.8427 9.22485 42.9252 9.24937 43.0037C9.29847 43.1616 9.40783 43.2938 9.55377 43.3717C9.69972 43.4496 9.8705 43.4669 10.0291 43.4199L10.419 43.2959V43.3845C10.3826 43.5453 10.4116 43.7141 10.4997 43.8536C10.5877 43.993 10.7276 44.0919 10.8886 44.1283C11.0496 44.1647 11.2184 44.1357 11.358 44.0477C11.4976 43.9597 11.5965 43.8198 11.6329 43.659L11.7304 43.2074L11.8101 42.8709L12.9177 42.5256L12.6608 43.6501L12.3241 43.7564L11.8101 43.9246C11.6721 43.9853 11.5614 44.0948 11.4992 44.2321C11.4371 44.3694 11.4279 44.5247 11.4734 44.6684C11.5184 44.8127 11.6139 44.9361 11.7425 45.0157C11.8711 45.0954 12.024 45.1261 12.1734 45.1023L12.3329 45.058L12.2532 45.4476C12.2335 45.5279 12.2301 45.6113 12.2432 45.6929C12.2563 45.7745 12.2856 45.8527 12.3294 45.9228C12.3731 45.9929 12.4304 46.0536 12.498 46.1012C12.5656 46.1489 12.642 46.1826 12.7228 46.2003C12.8836 46.2348 13.0516 46.205 13.1907 46.1173C13.3298 46.0296 13.4291 45.8909 13.4671 45.731L13.5557 45.3325L13.6266 45.3945C13.6843 45.4534 13.7533 45.5002 13.8293 45.5321C13.9054 45.5641 13.9871 45.5805 14.0696 45.5805C14.1521 45.5805 14.2338 45.5641 14.3099 45.5321C14.386 45.5002 14.4549 45.4534 14.5127 45.3945C14.6295 45.2767 14.6951 45.1176 14.6951 44.9518C14.6951 44.7859 14.6295 44.6268 14.5127 44.509L14.176 44.1991L13.919 43.96L14.176 42.8355L15.0177 43.6147L14.9468 43.96L14.8228 44.4825C14.808 44.6317 14.848 44.7813 14.9352 44.9034C15.0224 45.0256 15.1509 45.1119 15.297 45.1465C15.4431 45.1811 15.5967 45.1616 15.7295 45.0916C15.8623 45.0216 15.9651 44.9058 16.019 44.7658V44.5976L16.3203 44.8721C16.4381 44.9889 16.5973 45.0544 16.7633 45.0544C16.9293 45.0544 17.0885 44.9889 17.2063 44.8721C17.3143 44.7505 17.3701 44.5914 17.3618 44.4291C17.3535 44.2668 17.2818 44.1143 17.162 44.0043Z" fill="white"/>
<path d="M45.367 43.8806L45.0657 43.6061H45.1454C45.3034 43.557 45.4357 43.4477 45.5137 43.3018C45.5916 43.156 45.609 42.9854 45.5619 42.8268C45.5377 42.7488 45.4982 42.6763 45.4459 42.6135C45.3935 42.5508 45.3293 42.4989 45.2568 42.4611C45.1843 42.4232 45.1051 42.4001 45.0236 42.3929C44.9422 42.3858 44.8601 42.3948 44.7821 42.4195L44.3479 42.5523L44.0113 42.6586L43.1252 41.8705L44.2328 41.534L44.4897 41.7731L44.8796 42.1362C45.0012 42.2171 45.1475 42.2525 45.2926 42.2363C45.4378 42.22 45.5725 42.153 45.6731 42.0472C45.7738 41.9414 45.8338 41.8035 45.8426 41.6577C45.8514 41.512 45.8085 41.3679 45.7214 41.2507L45.5973 41.1356L45.9784 41.0116C46.1364 40.9625 46.2686 40.8533 46.3466 40.7074C46.4245 40.5616 46.4419 40.3909 46.3948 40.2324C46.3706 40.1543 46.3312 40.0819 46.2788 40.0191C46.2264 39.9563 46.1622 39.9045 46.0897 39.8667C46.0172 39.8288 45.938 39.8056 45.8565 39.7985C45.7751 39.7914 45.693 39.8004 45.6151 39.8251L45.2252 39.9402V39.8605C45.2449 39.7814 45.2485 39.6991 45.2359 39.6186C45.2232 39.538 45.1946 39.4609 45.1517 39.3915C45.1087 39.3222 45.0524 39.2622 44.9858 39.215C44.9193 39.1678 44.844 39.1344 44.7644 39.1167C44.6035 39.0793 44.4344 39.1066 44.2934 39.1927C44.1525 39.2789 44.0512 39.4169 44.0113 39.5771L43.9138 40.0287L43.834 40.3741L42.7264 40.7105L42.9923 39.586L43.3201 39.4797L43.8429 39.3203C43.9784 39.2545 44.0857 39.1422 44.1454 39.004C44.2051 38.8657 44.2131 38.7106 44.168 38.567C44.123 38.4233 44.0278 38.3005 43.8999 38.221C43.7719 38.1415 43.6196 38.1106 43.4707 38.1338L43.3024 38.1869L43.3999 37.7885C43.4182 37.7088 43.4205 37.6263 43.4068 37.5457C43.3931 37.4651 43.3636 37.3881 43.3199 37.3189C43.2763 37.2498 43.2194 37.19 43.1525 37.1429C43.0856 37.0959 43.0101 37.0625 42.9302 37.0447C42.8505 37.0251 42.7676 37.0218 42.6865 37.035C42.6054 37.0482 42.5278 37.0776 42.4583 37.1214C42.3889 37.1652 42.3289 37.2225 42.2821 37.2899C42.2353 37.3574 42.2026 37.4336 42.1859 37.514L42.0885 37.9036L42.0264 37.8505C41.9683 37.7923 41.8992 37.7462 41.8232 37.7147C41.7471 37.6833 41.6657 37.6671 41.5834 37.6671C41.5011 37.6671 41.4196 37.6833 41.3436 37.7147C41.2676 37.7462 41.1985 37.7923 41.1404 37.8505C41.0822 37.9086 41.036 37.9776 41.0046 38.0536C40.9731 38.1296 40.9569 38.211 40.9569 38.2932C40.9569 38.3754 40.9731 38.4569 41.0046 38.5328C41.036 38.6088 41.0822 38.6778 41.1404 38.736L41.4771 39.0547L41.734 39.2938L41.4859 40.4183L40.5999 39.6303L40.6796 39.2938L40.7948 38.7625C40.8071 38.6117 40.7646 38.4616 40.6751 38.3396C40.5856 38.2176 40.455 38.132 40.3074 38.0984C40.1609 38.0655 40.0074 38.0868 39.8754 38.1585C39.7434 38.2301 39.6419 38.3472 39.5897 38.488V38.6562L39.2885 38.3817C39.2345 38.3092 39.1654 38.2493 39.0858 38.2063C39.0063 38.1633 38.9183 38.1381 38.828 38.1327C38.7377 38.1272 38.6473 38.1415 38.5632 38.1747C38.479 38.2078 38.4032 38.2589 38.3409 38.3245C38.2786 38.39 38.2314 38.4683 38.2026 38.554C38.1738 38.6397 38.1641 38.7306 38.1742 38.8205C38.1842 38.9103 38.2139 38.9968 38.2609 39.074C38.308 39.1512 38.3714 39.2171 38.4467 39.2672L38.7391 39.5417H38.6594C38.5013 39.5908 38.369 39.7001 38.2911 39.8459C38.2131 39.9918 38.1958 40.1624 38.2429 40.3209C38.2671 40.399 38.3065 40.4715 38.3589 40.5342C38.4113 40.597 38.4755 40.6488 38.548 40.6867C38.6205 40.7245 38.6997 40.7477 38.7812 40.7548C38.8626 40.762 38.9447 40.7529 39.0226 40.7283L39.4568 40.5954L39.7935 40.4892L40.6796 41.2773L39.572 41.6226L39.3239 41.3746L38.9252 41.0116C38.8018 40.9247 38.6509 40.8858 38.5008 40.9021C38.3508 40.9184 38.2118 40.9888 38.11 41.1002C38.0109 41.2145 37.9563 41.3606 37.9563 41.5119C37.9563 41.6632 38.0109 41.8093 38.11 41.9236L38.234 42.0476L37.853 42.1627C37.7751 42.1866 37.7026 42.2255 37.6397 42.2774C37.5768 42.3292 37.5247 42.3929 37.4864 42.4648C37.4482 42.5368 37.4245 42.6156 37.4167 42.6967C37.4089 42.7778 37.4171 42.8596 37.441 42.9375C37.4649 43.0154 37.5038 43.0879 37.5557 43.1507C37.6076 43.2136 37.6713 43.2656 37.7433 43.3038C37.8153 43.3421 37.8941 43.3658 37.9753 43.3736C38.0565 43.3814 38.1384 43.3731 38.2163 43.3493L38.6062 43.2342V43.3227C38.5879 43.4024 38.5855 43.4849 38.5992 43.5654C38.6129 43.646 38.6425 43.7231 38.6861 43.7922C38.7298 43.8614 38.7867 43.9212 38.8536 43.9683C38.9204 44.0153 38.996 44.0487 39.0758 44.0665C39.2366 44.1011 39.4046 44.0713 39.5438 43.9835C39.6829 43.8958 39.7821 43.7571 39.8201 43.5972L39.9176 43.1456L39.9973 42.8091L41.0961 42.4638L40.848 43.5883L40.5112 43.6946L39.9885 43.854C39.8504 43.9147 39.7397 44.0241 39.6776 44.1614C39.6154 44.2987 39.6062 44.4541 39.6518 44.5978C39.6951 44.7432 39.7903 44.8676 39.9193 44.9476C40.0483 45.0276 40.2022 45.0575 40.3518 45.0317L40.5112 44.9785L40.4226 45.377C40.4043 45.4567 40.402 45.5392 40.4157 45.6198C40.4294 45.7003 40.4589 45.7774 40.5026 45.8466C40.5462 45.9157 40.6031 45.9755 40.67 46.0226C40.7369 46.0696 40.8124 46.103 40.8923 46.1208C41.0544 46.158 41.2246 46.1294 41.3658 46.0415C41.5069 45.9535 41.6075 45.8133 41.6454 45.6515L41.734 45.2619L41.7961 45.3239C41.9136 45.4413 42.0729 45.5073 42.2391 45.5073C42.4053 45.5073 42.5646 45.4413 42.6821 45.3239C42.7996 45.2064 42.8656 45.0472 42.8656 44.8811C42.8656 44.7151 42.7996 44.5558 42.6821 44.4384L42.3454 44.1285L42.0885 43.8894L42.3454 42.756L43.1872 43.5441L43.1074 43.8806L42.9923 44.4118C42.9804 44.5601 43.0223 44.7078 43.1103 44.8278C43.1983 44.9477 43.3266 45.0321 43.4717 45.0654C43.6168 45.0987 43.7691 45.0787 43.9007 45.0091C44.0323 44.9395 44.1344 44.825 44.1885 44.6863V44.5092L44.4897 44.7837C44.5475 44.8426 44.6164 44.8894 44.6925 44.9214C44.7686 44.9533 44.8502 44.9698 44.9328 44.9698C45.0153 44.9698 45.097 44.9533 45.173 44.9214C45.2491 44.8894 45.318 44.8426 45.3758 44.7837C45.4347 44.7239 45.4812 44.6531 45.5127 44.5753C45.5441 44.4975 45.5599 44.4142 45.559 44.3303C45.5582 44.2464 45.5408 44.1635 45.5079 44.0863C45.4749 44.0091 45.427 43.9392 45.367 43.8806Z" fill="white"/>
<path d="M32.739 49.2107L32.3314 48.83H32.4465C32.6246 48.7313 32.7632 48.5744 32.8391 48.3856C32.9149 48.1968 32.9235 47.9876 32.8631 47.7933C32.8028 47.599 32.6774 47.4314 32.5079 47.3186C32.3384 47.2058 32.1353 47.1548 31.9326 47.1742L31.3301 47.369L30.8605 47.5106L29.6909 46.4215L31.2149 45.9522L31.5782 46.2798L32.1276 46.7934C32.3 46.9106 32.5082 46.9634 32.7156 46.9423C32.9231 46.9213 33.1165 46.8278 33.2618 46.6783C33.3967 46.5185 33.4707 46.3162 33.4707 46.1072C33.4707 45.8981 33.3967 45.6958 33.2618 45.536L33.0934 45.3678L33.625 45.2084C33.7568 45.1974 33.8845 45.1571 33.9986 45.0904C34.1128 45.0237 34.2105 44.9323 34.2848 44.8229C34.359 44.7136 34.4078 44.589 34.4275 44.4583C34.4473 44.3277 34.4375 44.1942 34.399 44.0678C34.3604 43.9414 34.294 43.8252 34.2047 43.7278C34.1154 43.6304 34.0053 43.5542 33.8827 43.5047C33.76 43.4553 33.6279 43.434 33.4959 43.4422C33.3639 43.4505 33.2355 43.4882 33.12 43.5525L32.5795 43.7208V43.6057C32.5803 43.405 32.5128 43.2099 32.3882 43.0525C32.2635 42.8951 32.089 42.7847 31.8933 42.7394C31.6976 42.6941 31.4923 42.7166 31.3111 42.8032C31.1299 42.8898 30.9835 43.0354 30.8959 43.2161L30.7541 43.8359L30.6478 44.3141L29.1149 44.7834L29.4693 43.2249L29.9301 43.0832L30.6567 42.853C30.8445 42.7612 30.9938 42.606 31.0781 42.4147C31.1624 42.2235 31.1763 42.0087 31.1174 41.8082C31.051 41.6104 30.9167 41.4424 30.7384 41.3339C30.5601 41.2253 30.3491 41.1832 30.1427 41.2149L29.9124 41.2857L30.0364 40.7367C30.0798 40.5154 30.037 40.2859 29.9168 40.095C29.7966 39.9041 29.608 39.7663 29.3896 39.7096C29.1668 39.6638 28.9349 39.7053 28.7419 39.8257C28.5489 39.946 28.4096 40.1359 28.3529 40.356L28.2288 40.905L28.1402 40.8164C27.9807 40.672 27.774 40.5906 27.5587 40.5873C27.3435 40.5841 27.1344 40.6592 26.9706 40.7987C26.822 40.9685 26.7438 41.1886 26.752 41.4141C26.7602 41.6395 26.8543 41.8533 27.0149 42.0118L27.4845 42.4457L27.839 42.7734L27.4845 44.3406L26.306 43.2515L26.4212 42.7822L26.5896 42.0473C26.5846 41.8505 26.5141 41.6609 26.3893 41.5086C26.2645 41.3563 26.0925 41.25 25.9004 41.2063C25.7083 41.1626 25.5071 41.1841 25.3287 41.2675C25.1502 41.3508 25.0046 41.4912 24.9149 41.6665L24.8706 41.8967L24.4542 41.516C24.3788 41.4069 24.28 41.3162 24.1649 41.2504C24.0498 41.1846 23.9214 41.1454 23.7891 41.1358C23.6569 41.1262 23.5242 41.1464 23.4007 41.1949C23.2773 41.2434 23.1664 41.3189 23.0761 41.4159C22.9858 41.513 22.9184 41.629 22.879 41.7555C22.8395 41.882 22.829 42.0157 22.8481 42.1469C22.8673 42.278 22.9157 42.4031 22.9896 42.5131C23.0636 42.6231 23.1614 42.715 23.2757 42.7822L23.6921 43.163H23.5769C23.4434 43.1714 23.3134 43.21 23.1969 43.2758C23.0804 43.3416 22.9803 43.4329 22.9041 43.5429C22.828 43.6529 22.7777 43.7787 22.7572 43.9109C22.7367 44.0431 22.7464 44.1782 22.7856 44.3061C22.8249 44.434 22.8926 44.5513 22.9837 44.6493C23.0748 44.7473 23.1869 44.8234 23.3116 44.8719C23.4364 44.9204 23.5705 44.94 23.704 44.9293C23.8374 44.9186 23.9666 44.8777 24.082 44.8099L24.6934 44.624L25.1542 44.4823L26.3238 45.5715L24.7997 46.0408L24.4453 45.7131L23.8959 45.1995C23.7232 45.1089 23.5254 45.0778 23.3331 45.1109C23.1409 45.1441 22.965 45.2398 22.8327 45.3831C22.7004 45.5264 22.6191 45.7093 22.6015 45.9035C22.5839 46.0976 22.6309 46.2922 22.7352 46.4569L22.9124 46.6251L22.3719 46.7846C22.1938 46.8832 22.0552 47.0401 21.9793 47.2289C21.9035 47.4177 21.895 47.6269 21.9553 47.8212C22.0156 48.0155 22.141 48.1832 22.3105 48.296C22.48 48.4087 22.6831 48.4597 22.8858 48.4404L23.4174 48.2721V48.3873C23.3719 48.6111 23.4147 48.8439 23.5369 49.037C23.6591 49.23 23.8512 49.3684 24.0731 49.4233C24.2946 49.4666 24.5243 49.4238 24.7153 49.3037C24.9063 49.1836 25.0443 48.9952 25.101 48.7769L25.2427 48.157L25.3491 47.6789L26.882 47.2096L26.5276 48.768L26.0668 48.9097L25.3491 49.1311C25.1821 49.234 25.054 49.3895 24.985 49.5731C24.916 49.7566 24.9099 49.9579 24.9676 50.1453C25.0254 50.3327 25.1438 50.4957 25.3042 50.6086C25.4647 50.7215 25.6581 50.778 25.8541 50.7692L26.0845 50.6983L25.9605 51.2385C25.9025 51.3582 25.8722 51.4893 25.8719 51.6223C25.8716 51.7552 25.9012 51.8865 25.9586 52.0065C26.016 52.1264 26.0997 52.2319 26.2035 52.3151C26.3073 52.3983 26.4284 52.4571 26.558 52.4871C26.6877 52.5171 26.8224 52.5175 26.9522 52.4884C27.082 52.4592 27.2036 52.4013 27.3079 52.3187C27.4122 52.2362 27.4966 52.1313 27.5548 52.0117C27.613 51.8922 27.6435 51.7611 27.644 51.6281L27.7681 51.0791L27.8656 51.1588C28.0385 51.2534 28.238 51.2877 28.4326 51.2562C28.6272 51.2247 28.8057 51.1292 28.94 50.9849C29.0742 50.8407 29.1564 50.6558 29.1737 50.4595C29.1909 50.2633 29.1422 50.0669 29.0352 49.9014L28.5655 49.4675L28.2111 49.1311L28.5655 47.5726L29.744 48.6618L29.6377 49.1311L29.4693 49.866C29.463 50.0671 29.5253 50.2643 29.6461 50.4253C29.7669 50.5862 29.9389 50.7013 30.1339 50.7515C30.3377 50.7932 30.5497 50.762 30.7328 50.6632C30.9158 50.5645 31.0583 50.4045 31.1352 50.2113L31.1883 49.9811L31.6048 50.3619C31.7747 50.5104 31.9949 50.5885 32.2205 50.5803C32.4461 50.5721 32.6601 50.4781 32.8187 50.3176C32.9336 50.1516 32.9884 49.9514 32.9739 49.7501C32.9594 49.5489 32.8765 49.3585 32.739 49.2107Z" fill="white"/>
<path d="M24.4195 27.4371C24.3247 26.7267 24.0589 26.0499 23.6447 25.4649C23.2304 24.8798 22.6803 24.404 22.0415 24.0783C21.4027 23.7526 20.6943 23.5867 19.9772 23.5949C19.2601 23.6031 18.5557 23.7852 17.9246 24.1254C17.7289 22.8347 17.0886 21.6527 16.114 20.7834C15.1395 19.9141 13.8918 19.412 12.5864 19.3637C11.281 19.3154 9.9996 19.724 8.96342 20.519C7.92723 21.3139 7.20119 22.4454 6.91061 23.7181C6.45184 23.5904 5.97798 23.5249 5.50175 23.5233C4.82751 23.4937 4.15502 23.6125 3.53179 23.8713C2.90856 24.1301 2.34983 24.5225 1.89509 25.0209C1.44035 25.5192 1.10072 26.1113 0.900201 26.7553C0.699683 27.3993 0.643184 28.0794 0.734684 28.7476C2.07266 36.3184 25.2435 36.1147 24.4195 27.4371Z" fill="white"/>
<path d="M45.854 20.84C39.9527 20.84 33.6527 18.8565 32.873 14.4291C32.7288 13.6487 32.7614 12.846 32.9684 12.0798C33.1754 11.3137 33.5516 10.6036 34.0692 10.0018C34.3367 9.68003 34.6333 9.38362 34.9552 9.11629C34.3982 7.75913 33.4233 6.61446 32.1716 5.8481C30.92 5.08174 29.4567 4.73351 27.9938 4.85386C26.5309 4.97421 25.1443 5.55686 24.0349 6.51745C22.9255 7.47803 22.151 8.76665 21.8236 10.1966C21.2458 10.041 20.6498 9.96353 20.0514 9.96633C18.3325 9.96498 16.6748 10.6038 15.4018 11.758C14.1288 12.9123 13.3319 14.4992 13.1666 16.2089C12.113 15.6195 10.9235 15.3154 9.716 15.3269C8.50853 15.3383 7.32501 15.6649 6.28275 16.2743C5.24049 16.8836 4.37568 17.7546 3.77403 18.8008C3.17238 19.8471 2.85477 21.0323 2.85269 22.239C2.83947 22.4572 2.83947 22.6761 2.85269 22.8943C3.66236 22.5271 4.54208 22.3398 5.43118 22.3453H6.04257C6.5605 21.0886 7.44472 20.0167 8.58033 19.2688C9.71595 18.5209 11.0504 18.1317 12.4103 18.1518C13.7702 18.1718 15.0926 18.6002 16.2056 19.3812C17.3186 20.1623 18.1708 21.2598 18.6514 22.5312C19.4173 22.3625 20.2098 22.3535 20.9792 22.505C21.7487 22.6564 22.4786 22.965 23.1232 23.4113C23.7679 23.8577 24.3133 24.4323 24.7255 25.099C25.1377 25.7658 25.4076 26.5104 25.5185 27.2862C25.5969 28.0731 25.5054 28.8677 25.2501 29.6162C24.9948 30.3647 24.5818 31.0498 24.0388 31.6251C23.163 32.5319 22.1146 33.2544 20.9552 33.7502C23.0932 35.1926 25.6243 35.9409 28.2033 35.893C32.7489 35.893 36.5856 33.8122 37.8261 30.9521C38.6727 31.5852 39.6531 32.0161 40.6923 32.2116C41.7314 32.4071 42.8015 32.3621 43.8205 32.0799C44.8395 31.7978 45.7802 31.286 46.5705 30.584C47.3608 29.882 47.9795 29.0083 48.3793 28.03C51.9236 27.056 54.4135 24.4881 54.4135 21.5395C54.4112 20.7848 54.2481 20.0392 53.935 19.3524C51.3643 20.3707 48.619 20.8761 45.854 20.84Z" fill="white"/>
<path d="M57.7095 12.9065C57.6057 12.1998 57.334 11.5282 56.9172 10.948C56.5004 10.3678 55.9505 9.89581 55.3137 9.57155C54.6769 9.24728 53.9716 9.08017 53.2569 9.08422C52.5421 9.08827 51.8388 9.26335 51.2057 9.59481C51.0053 8.30891 50.3633 7.13277 49.39 6.26815C48.4167 5.40353 47.1726 4.9043 45.8712 4.85614C44.5698 4.80797 43.2922 5.21386 42.2575 6.00416C41.2229 6.79446 40.4956 7.91991 40.2006 9.18747C39.7406 9.06688 39.2673 9.00442 38.7917 9.00153C38.1191 8.97552 37.449 9.09738 36.8287 9.3585C36.2084 9.61962 35.653 10.0136 35.2017 10.5127C34.7504 11.0118 34.4143 11.6038 34.217 12.2469C34.0198 12.8901 33.9662 13.5686 34.0601 14.2347C35.3626 21.7878 58.5335 21.5841 57.7095 12.9065Z" fill="white"/>
</svg>
