<svg width="60" height="59" viewBox="0 0 60 59" fill="none" xmlns="http://www.w3.org/2000/svg">
<path d="M17.0362 45.5482L16.7245 45.2549H16.807C16.9699 45.2051 17.1063 45.0926 17.1862 44.9422C17.2661 44.7918 17.283 44.6158 17.2332 44.4529C17.1834 44.29 17.0709 44.1537 16.9205 44.0737C16.7701 43.9938 16.5941 43.9769 16.4312 44.0267L15.9821 44.1642L15.6338 44.2742L14.7173 43.4585L15.863 43.1102L16.1288 43.3577L16.5412 43.7334C16.667 43.8172 16.8183 43.8539 16.9684 43.837C17.1186 43.8202 17.258 43.7509 17.3621 43.6414C17.4661 43.5318 17.5282 43.3891 17.5373 43.2382C17.5465 43.0874 17.502 42.9382 17.4119 42.8169L17.2836 42.6977L17.6869 42.5786C17.8487 42.5259 17.9833 42.412 18.0621 42.2613C18.1409 42.1105 18.1576 41.9349 18.1085 41.772C18.0844 41.6904 18.0443 41.6144 17.9906 41.5484C17.9368 41.4825 17.8705 41.4278 17.7954 41.3877C17.7204 41.3476 17.6381 41.3229 17.5534 41.3149C17.4686 41.3069 17.3832 41.3159 17.302 41.3412L16.8987 41.4696V41.3779C16.9176 41.2955 16.9201 41.21 16.9059 41.1266C16.8917 41.0432 16.8611 40.9634 16.816 40.8919C16.7708 40.8203 16.712 40.7584 16.6428 40.7097C16.5736 40.661 16.4955 40.6264 16.4129 40.608C16.2452 40.5696 16.0691 40.5991 15.9231 40.6901C15.7771 40.7811 15.6731 40.9263 15.6338 41.0938L15.533 41.5521L15.4505 41.9095L14.3507 42.2303L14.6165 41.0663L14.9556 40.9655L15.4964 40.7913C15.6369 40.7236 15.7484 40.6078 15.8106 40.4648C15.8729 40.3218 15.8817 40.1612 15.8355 40.0122C15.7907 39.8642 15.6933 39.7376 15.5615 39.6566C15.4298 39.5755 15.2729 39.5455 15.1206 39.5723L14.9556 39.6273L15.0473 39.2149C15.0662 39.1324 15.0686 39.047 15.0545 38.9636C15.0403 38.8802 15.0097 38.8004 14.9646 38.7288C14.9194 38.6573 14.8606 38.5954 14.7914 38.5466C14.7222 38.4979 14.6441 38.4634 14.5615 38.445C14.479 38.4247 14.3932 38.4213 14.3093 38.435C14.2255 38.4486 14.1452 38.479 14.0734 38.5243C14.0015 38.5697 13.9395 38.629 13.8911 38.6989C13.8427 38.7687 13.8089 38.8475 13.7916 38.9307L13.6999 39.3432L13.6266 39.279C13.5051 39.1575 13.3402 39.0892 13.1683 39.0892C12.9964 39.0892 12.8316 39.1575 12.7101 39.279C12.5885 39.4006 12.5203 39.5654 12.5203 39.7373C12.5203 39.9092 12.5885 40.074 12.7101 40.1956L13.0584 40.5164L13.3242 40.7638L13.0584 41.9279L12.1418 41.1121L12.2243 40.7638L12.3434 40.2139C12.3656 40.0548 12.3273 39.8931 12.2361 39.7609C12.1448 39.6286 12.0073 39.5354 11.8506 39.4997C11.694 39.464 11.5296 39.4884 11.3901 39.568C11.2505 39.6476 11.1459 39.7767 11.097 39.9298V40.1039L10.7853 39.8198C10.7295 39.7447 10.658 39.6827 10.5757 39.6382C10.4935 39.5936 10.4024 39.5676 10.3091 39.562C10.2157 39.5563 10.1222 39.5711 10.0351 39.6054C9.94807 39.6397 9.8696 39.6927 9.80516 39.7605C9.74073 39.8283 9.69188 39.9094 9.66209 39.9981C9.6323 40.0868 9.62229 40.1809 9.63272 40.2739C9.64315 40.3669 9.67379 40.4564 9.72248 40.5363C9.77118 40.6162 9.83675 40.6845 9.91461 40.7363L10.2171 41.0205H10.1346C9.97113 41.0712 9.8343 41.1844 9.75367 41.3353C9.67304 41.4863 9.65511 41.6629 9.7038 41.827C9.72885 41.9078 9.76963 41.9828 9.82379 42.0478C9.87795 42.1128 9.94443 42.1664 10.0194 42.2056C10.0944 42.2448 10.1763 42.2688 10.2606 42.2761C10.3448 42.2835 10.4297 42.2742 10.5104 42.2486L10.9686 42.1111L11.3077 42.0012L12.2243 42.8169L11.0786 43.1743L10.822 42.9269L10.4096 42.5419C10.2837 42.4637 10.1346 42.4316 9.9877 42.4508C9.84078 42.4701 9.70506 42.5396 9.60358 42.6475C9.50209 42.7555 9.4411 42.8952 9.43097 43.0431C9.42084 43.1909 9.4622 43.3377 9.548 43.4585L9.6763 43.5868L9.28219 43.7059C9.20058 43.73 9.12457 43.7701 9.0586 43.8239C8.99262 43.8776 8.93799 43.9439 8.8979 44.019C8.85781 44.0941 8.83308 44.1764 8.8251 44.2611C8.81711 44.3458 8.82605 44.4313 8.85142 44.5125C8.9022 44.6759 9.01532 44.8128 9.16628 44.8934C9.31725 44.974 9.4939 44.9919 9.65798 44.9433L10.0613 44.815V44.9066C10.0236 45.0731 10.0536 45.2478 10.1447 45.3922C10.2358 45.5365 10.3805 45.6388 10.547 45.6765C10.7135 45.7142 10.8882 45.6842 11.0326 45.5931C11.177 45.502 11.2792 45.3573 11.3169 45.1907L11.4177 44.7233L11.5002 44.375L12.6459 44.0176L12.3801 45.1816L12.0318 45.2916L11.5002 45.4657C11.3575 45.5285 11.2429 45.6418 11.1786 45.784C11.1143 45.9261 11.1048 46.0869 11.152 46.2356C11.1985 46.385 11.2973 46.5126 11.4303 46.5951C11.5632 46.6776 11.7215 46.7094 11.876 46.6847L12.041 46.6389L11.9585 47.0422C11.9382 47.1253 11.9347 47.2116 11.9482 47.296C11.9618 47.3805 11.992 47.4614 12.0373 47.534C12.0826 47.6066 12.1419 47.6694 12.2118 47.7187C12.2817 47.768 12.3607 47.8029 12.4443 47.8212C12.6106 47.857 12.7844 47.8262 12.9283 47.7354C13.0722 47.6446 13.1748 47.501 13.2142 47.3355L13.3058 46.923L13.3791 46.9872C13.4389 47.0481 13.5102 47.0966 13.5889 47.1296C13.6676 47.1627 13.7521 47.1797 13.8374 47.1797C13.9228 47.1797 14.0073 47.1627 14.086 47.1296C14.1647 47.0966 14.236 47.0481 14.2957 46.9872C14.4166 46.8653 14.4844 46.7006 14.4844 46.5289C14.4844 46.3572 14.4166 46.1925 14.2957 46.0706L13.9474 45.7498L13.6816 45.5024L13.9474 44.3383L14.8181 45.1449L14.7448 45.5024L14.6165 46.0431C14.6012 46.1977 14.6425 46.3525 14.7327 46.4789C14.8229 46.6053 14.9559 46.6947 15.107 46.7305C15.2581 46.7663 15.417 46.7461 15.5544 46.6736C15.6917 46.6012 15.7981 46.4814 15.8538 46.3364V46.1623L16.1655 46.4464C16.2873 46.5673 16.4521 46.6351 16.6237 46.6351C16.7954 46.6351 16.9601 46.5673 17.082 46.4464C17.1936 46.3206 17.2514 46.1559 17.2428 45.9879C17.2342 45.8199 17.16 45.662 17.0362 45.5482Z" fill="#60B0FF"/>
<path d="M46.211 45.4201L45.8994 45.136H45.9818C46.1453 45.0852 46.2821 44.972 46.3628 44.8211C46.4434 44.6701 46.4613 44.4935 46.4126 44.3294C46.3876 44.2486 46.3468 44.1736 46.2926 44.1086C46.2385 44.0436 46.172 43.99 46.097 43.9508C46.0221 43.9116 45.9401 43.8877 45.8558 43.8803C45.7716 43.8729 45.6867 43.8822 45.6061 43.9078L45.1569 44.0453L44.8087 44.1553L43.8921 43.3395L45.0378 42.9912L45.3036 43.2387L45.7069 43.6145C45.8326 43.6983 45.9839 43.735 46.1341 43.7181C46.2843 43.7013 46.4236 43.632 46.5277 43.5224C46.6318 43.4129 46.6938 43.2701 46.703 43.1193C46.7121 42.9685 46.6677 42.8193 46.5776 42.698L46.4493 42.5788L46.8434 42.4505C47.0068 42.3997 47.1437 42.2866 47.2243 42.1356C47.3049 41.9847 47.3229 41.808 47.2742 41.6439C47.2491 41.5631 47.2083 41.4881 47.1542 41.4231C47.1 41.3582 47.0335 41.3045 46.9586 41.2654C46.8836 41.2262 46.8017 41.2022 46.7174 41.1948C46.6331 41.1874 46.5483 41.1968 46.4676 41.2223L46.0643 41.3415V41.259C46.0847 41.1771 46.0884 41.092 46.0754 41.0086C46.0623 40.9252 46.0327 40.8453 45.9883 40.7736C45.9439 40.7018 45.8856 40.6397 45.8168 40.5908C45.748 40.542 45.6701 40.5074 45.5877 40.4891C45.4213 40.4503 45.2463 40.4786 45.1005 40.5678C44.9548 40.6569 44.8499 40.7999 44.8087 40.9657L44.7078 41.4331L44.6254 41.7906L43.4797 42.1389L43.7546 40.9749L44.0938 40.8649L44.6345 40.6999C44.7747 40.6317 44.8857 40.5155 44.9474 40.3724C45.0092 40.2293 45.0175 40.0688 44.9708 39.9201C44.9242 39.7713 44.8258 39.6443 44.6934 39.562C44.5611 39.4797 44.4036 39.4477 44.2496 39.4717L44.0754 39.5267L44.1763 39.1143C44.1952 39.0318 44.1976 38.9464 44.1834 38.863C44.1693 38.7796 44.1387 38.6998 44.0936 38.6283C44.0484 38.5567 43.9896 38.4948 43.9204 38.4461C43.8512 38.3973 43.7731 38.3628 43.6905 38.3444C43.608 38.3241 43.5222 38.3207 43.4383 38.3344C43.3545 38.348 43.2742 38.3784 43.2023 38.4237C43.1305 38.4691 43.0685 38.5284 43.0201 38.5982C42.9717 38.6681 42.9379 38.747 42.9206 38.8301L42.8198 39.2334L42.7556 39.1784C42.6954 39.1183 42.624 39.0705 42.5453 39.0379C42.4667 39.0054 42.3824 38.9886 42.2973 38.9886C42.2122 38.9886 42.1279 39.0054 42.0493 39.0379C41.9707 39.0705 41.8992 39.1183 41.8391 39.1784C41.7789 39.2386 41.7312 39.3101 41.6986 39.3887C41.666 39.4673 41.6492 39.5516 41.6492 39.6367C41.6492 39.7218 41.666 39.8061 41.6986 39.8847C41.7312 39.9634 41.7789 40.0348 41.8391 40.095L42.1873 40.4249L42.4531 40.6724L42.1965 41.8364L41.28 41.0207L41.3625 40.6724L41.4816 40.1225C41.4943 39.9664 41.4504 39.811 41.3578 39.6847C41.2652 39.5585 41.1302 39.4698 40.9775 39.4351C40.8259 39.401 40.6671 39.4231 40.5306 39.4972C40.394 39.5714 40.289 39.6926 40.2351 39.8384V40.0125L39.9235 39.7283C39.8677 39.6532 39.7962 39.5913 39.7139 39.5467C39.6316 39.5022 39.5406 39.4762 39.4472 39.4705C39.3538 39.4649 39.2603 39.4797 39.1733 39.514C39.0862 39.5483 39.0077 39.6012 38.9433 39.669C38.8789 39.7369 38.83 39.818 38.8003 39.9067C38.7705 39.9953 38.7604 40.0895 38.7709 40.1824C38.7813 40.2754 38.8119 40.365 38.8606 40.4449C38.9093 40.5248 38.9749 40.593 39.0528 40.6449L39.3552 40.929H39.2727C39.1093 40.9798 38.9724 41.0929 38.8918 41.2439C38.8112 41.3949 38.7933 41.5715 38.842 41.7356C38.867 41.8164 38.9078 41.8914 38.962 41.9564C39.0161 42.0213 39.0826 42.075 39.1576 42.1142C39.2325 42.1533 39.3145 42.1773 39.3987 42.1847C39.483 42.1921 39.5679 42.1828 39.6485 42.1572L40.0976 42.0197L40.4459 41.9097L41.3625 42.7255L40.2168 43.0829L39.9601 42.8263L39.5477 42.4505C39.4201 42.3605 39.264 42.3202 39.1088 42.3371C38.9535 42.354 38.8098 42.4269 38.7045 42.5421C38.6019 42.6605 38.5455 42.8118 38.5455 42.9683C38.5455 43.1249 38.6019 43.2762 38.7045 43.3945L38.8328 43.5229L38.4387 43.642C38.358 43.6667 38.2831 43.707 38.218 43.7607C38.1529 43.8143 38.0991 43.8802 38.0595 43.9547C38.0199 44.0292 37.9954 44.1107 37.9873 44.1947C37.9793 44.2786 37.9878 44.3633 38.0125 44.444C38.0372 44.5246 38.0775 44.5996 38.1311 44.6647C38.1848 44.7297 38.2507 44.7836 38.3252 44.8232C38.3997 44.8627 38.4812 44.8873 38.5652 44.8953C38.6491 44.9034 38.7338 44.8948 38.8145 44.8702L39.2177 44.751V44.8427C39.1988 44.9251 39.1963 45.0105 39.2105 45.0939C39.2247 45.1774 39.2553 45.2571 39.3004 45.3287C39.3456 45.4003 39.4044 45.4622 39.4736 45.5109C39.5428 45.5596 39.6209 45.5942 39.7035 45.6126C39.8699 45.6483 40.0436 45.6175 40.1875 45.5267C40.3315 45.4359 40.4341 45.2924 40.4734 45.1268L40.5742 44.6594L40.6567 44.3111L41.7932 43.9536L41.5366 45.1176L41.1883 45.2276L40.6476 45.3926C40.5048 45.4554 40.3902 45.5687 40.3259 45.7108C40.2617 45.8529 40.2522 46.0138 40.2993 46.1625C40.3441 46.313 40.4425 46.4418 40.576 46.5246C40.7094 46.6074 40.8686 46.6383 41.0233 46.6116L41.1883 46.5566L41.0967 46.9691C41.0777 47.0515 41.0753 47.1369 41.0895 47.2203C41.1037 47.3037 41.1342 47.3835 41.1793 47.4551C41.2245 47.5266 41.2833 47.5886 41.3525 47.6373C41.4217 47.686 41.4998 47.7206 41.5824 47.739C41.7501 47.7774 41.9262 47.7479 42.0722 47.6569C42.2182 47.5658 42.3222 47.4207 42.3615 47.2532L42.4531 46.8499L42.5173 46.914C42.6389 47.0356 42.8037 47.1039 42.9756 47.1039C43.1475 47.1039 43.3123 47.0356 43.4339 46.914C43.5554 46.7925 43.6237 46.6277 43.6237 46.4558C43.6237 46.2839 43.5554 46.119 43.4339 45.9975L43.0856 45.6767L42.8198 45.4293L43.0856 44.2561L43.9563 45.0718L43.8738 45.4201L43.7546 45.97C43.7423 46.1235 43.7857 46.2763 43.8767 46.4005C43.9678 46.5247 44.1005 46.612 44.2506 46.6465C44.4007 46.681 44.5582 46.6603 44.6943 46.5883C44.8304 46.5162 44.9361 46.3977 44.992 46.2542V46.0708L45.3036 46.355C45.3633 46.4159 45.4346 46.4644 45.5133 46.4975C45.592 46.5305 45.6765 46.5475 45.7619 46.5475C45.8472 46.5475 45.9317 46.5305 46.0104 46.4975C46.0891 46.4644 46.1604 46.4159 46.2201 46.355C46.2811 46.2931 46.3292 46.2197 46.3617 46.1392C46.3942 46.0587 46.4105 45.9725 46.4097 45.8856C46.4088 45.7988 46.3908 45.7129 46.3567 45.633C46.3226 45.5532 46.2731 45.4808 46.211 45.4201Z" fill="#60B0FF"/>
<path d="M33.1487 50.9373L32.7271 50.5432H32.8463C33.0304 50.4411 33.1738 50.2786 33.2523 50.0832C33.3308 49.8878 33.3396 49.6713 33.2772 49.4702C33.2148 49.269 33.085 49.0955 32.9097 48.9788C32.7344 48.8621 32.5243 48.8093 32.3147 48.8293L31.6914 49.0309L31.2057 49.1776L29.9958 48.0502L31.5723 47.5645L31.9481 47.9036L32.5163 48.4352C32.6946 48.5565 32.91 48.6111 33.1246 48.5893C33.3392 48.5675 33.5392 48.4708 33.6895 48.316C33.8291 48.1507 33.9056 47.9412 33.9056 47.7248C33.9056 47.5085 33.8291 47.299 33.6895 47.1337L33.5153 46.9595L34.0653 46.7946C34.2016 46.7832 34.3336 46.7415 34.4517 46.6724C34.5698 46.6034 34.6709 46.5088 34.7477 46.3956C34.8244 46.2824 34.8749 46.1534 34.8954 46.0182C34.9158 45.8829 34.9057 45.7448 34.8658 45.614C34.8259 45.4831 34.7573 45.3628 34.6649 45.262C34.5725 45.1611 34.4587 45.0823 34.3318 45.0311C34.2049 44.98 34.0682 44.9579 33.9317 44.9664C33.7952 44.975 33.6623 45.014 33.5428 45.0806L32.9837 45.2548V45.1356C32.9846 44.9278 32.9148 44.7259 32.7859 44.563C32.6569 44.4001 32.4764 44.2858 32.274 44.2389C32.0716 44.192 31.8592 44.2153 31.6718 44.305C31.4843 44.3946 31.3329 44.5453 31.2423 44.7323L31.0957 45.3739L30.9857 45.8688L29.4001 46.3546L29.7667 44.7415L30.2433 44.5948L30.9949 44.3566C31.1891 44.2615 31.3435 44.1008 31.4307 43.9029C31.518 43.7049 31.5324 43.4826 31.4714 43.275C31.4027 43.0703 31.2638 42.8964 31.0794 42.7841C30.8949 42.6717 30.6767 42.6281 30.4632 42.6609L30.225 42.7343L30.3533 42.166C30.3981 41.9369 30.3539 41.6993 30.2295 41.5018C30.1052 41.3042 29.9101 41.1615 29.6842 41.1028C29.4537 41.0554 29.2138 41.0984 29.0142 41.2229C28.8146 41.3475 28.6705 41.544 28.6118 41.7719L28.4835 42.3401L28.3919 42.2485C28.2268 42.099 28.013 42.0147 27.7904 42.0113C27.5677 42.008 27.3515 42.0857 27.182 42.2302C27.0283 42.4059 26.9474 42.6337 26.9559 42.8671C26.9644 43.1004 27.0617 43.3218 27.2278 43.4858L27.7136 43.9349L28.0802 44.2741L27.7136 45.8963L26.4946 44.769L26.6138 44.2832L26.7879 43.5225C26.7828 43.3188 26.7098 43.1226 26.5807 42.965C26.4516 42.8073 26.2737 42.6972 26.075 42.652C25.8763 42.6068 25.6682 42.6291 25.4836 42.7154C25.299 42.8016 25.1484 42.947 25.0556 43.1284L25.0098 43.3667L24.579 42.9726C24.5011 42.8597 24.3989 42.7657 24.2798 42.6976C24.1608 42.6295 24.0279 42.589 23.8911 42.5791C23.7543 42.5691 23.6171 42.59 23.4894 42.6402C23.3618 42.6904 23.247 42.7686 23.1536 42.869C23.0602 42.9694 22.9905 43.0896 22.9497 43.2205C22.9089 43.3514 22.898 43.4899 22.9178 43.6256C22.9376 43.7613 22.9876 43.8909 23.0642 44.0047C23.1407 44.1185 23.2418 44.2137 23.36 44.2832L23.7908 44.6774H23.6717C23.5335 44.6861 23.3991 44.726 23.2785 44.7941C23.158 44.8622 23.0545 44.9568 22.9757 45.0706C22.8969 45.1845 22.845 45.3147 22.8238 45.4516C22.8025 45.5884 22.8126 45.7282 22.8532 45.8606C22.8937 45.993 22.9638 46.1144 23.058 46.2159C23.1522 46.3173 23.2682 46.3961 23.3973 46.4463C23.5263 46.4965 23.665 46.5168 23.803 46.5057C23.9411 46.4945 24.0747 46.4523 24.1941 46.3821L24.8265 46.1896L25.3031 46.043L26.5129 47.1704L24.9365 47.6561L24.5699 47.317L24.0016 46.7854C23.823 46.6916 23.6183 46.6593 23.4195 46.6937C23.2206 46.728 23.0387 46.827 22.9018 46.9754C22.765 47.1237 22.6809 47.313 22.6627 47.514C22.6444 47.715 22.6931 47.9164 22.8009 48.0869L22.9843 48.261L22.4252 48.426C22.241 48.5281 22.0976 48.6906 22.0191 48.886C21.9407 49.0814 21.9319 49.2979 21.9943 49.4991C22.0567 49.7002 22.1864 49.8737 22.3617 49.9904C22.537 50.1072 22.7471 50.16 22.9568 50.1399L23.5067 49.9658V50.085C23.4596 50.3167 23.5039 50.5576 23.6302 50.7575C23.7566 50.9573 23.9554 51.1006 24.1849 51.1573C24.414 51.2021 24.6516 51.1579 24.8492 51.0336C25.0468 50.9092 25.1894 50.7142 25.2481 50.4882L25.3948 49.8466L25.5048 49.3517L27.0904 48.8659L26.7238 50.4791L26.2472 50.6257L25.5048 50.8549C25.332 50.9614 25.1995 51.1224 25.1281 51.3124C25.0567 51.5024 25.0504 51.7107 25.1102 51.9047C25.1699 52.0987 25.2924 52.2673 25.4584 52.3842C25.6243 52.5011 25.8244 52.5596 26.0272 52.5505L26.2655 52.4771L26.1371 53.0362C26.0772 53.1601 26.0459 53.2959 26.0455 53.4335C26.0452 53.5711 26.0758 53.707 26.1352 53.8312C26.1946 53.9553 26.2812 54.0645 26.3885 54.1506C26.4959 54.2368 26.6212 54.2976 26.7553 54.3286C26.8893 54.3597 27.0287 54.3601 27.163 54.33C27.2972 54.2998 27.423 54.2398 27.5309 54.1544C27.6388 54.069 27.7261 53.9604 27.7863 53.8366C27.8465 53.7129 27.878 53.5771 27.8786 53.4395L28.0069 52.8712L28.1077 52.9537C28.2866 53.0517 28.493 53.0871 28.6943 53.0545C28.8956 53.0219 29.0803 52.9231 29.2191 52.7738C29.3579 52.6244 29.443 52.4331 29.4609 52.2299C29.4787 52.0268 29.4282 51.8235 29.3176 51.6522L28.8318 51.2031L28.4652 50.8549L28.8318 49.2417L30.0508 50.3691L29.9408 50.8549L29.7667 51.6156C29.7601 51.8237 29.8246 52.0279 29.9495 52.1945C30.0745 52.3611 30.2524 52.4802 30.4541 52.5321C30.6649 52.5753 30.8842 52.543 31.0735 52.4408C31.2629 52.3386 31.4103 52.173 31.4898 51.973L31.5448 51.7347L31.9756 52.1288C32.1513 52.2826 32.3791 52.3635 32.6125 52.3549C32.8458 52.3464 33.0671 52.2492 33.2312 52.083C33.3501 51.9112 33.4067 51.704 33.3917 51.4957C33.3767 51.2873 33.291 51.0903 33.1487 50.9373Z" fill="#60B0FF"/>
<path d="M24.5432 28.3997C24.4452 27.6644 24.1702 26.9639 23.7417 26.3583C23.3133 25.7527 22.7442 25.2602 22.0835 24.9231C21.4227 24.5859 20.69 24.4142 19.9482 24.4227C19.2065 24.4312 18.4778 24.6197 17.825 24.9718C17.6226 23.6358 16.9602 22.4124 15.9522 21.5126C14.9441 20.6127 13.6536 20.093 12.3032 20.043C10.9529 19.9931 9.62751 20.416 8.55569 21.2388C7.48388 22.0617 6.73287 23.2328 6.43229 24.5502C5.95775 24.418 5.4676 24.3502 4.97499 24.3486C4.27757 24.318 3.58196 24.4409 2.9373 24.7088C2.29264 24.9767 1.71469 25.3829 1.24432 25.8987C0.773943 26.4145 0.42263 27.0274 0.215217 27.694C0.00780394 28.3605 -0.0506375 29.0645 0.0440081 29.7562C1.42799 37.5927 25.3956 37.3818 24.5432 28.3997Z" fill="#D9D9D9"/>
<path d="M46.7148 21.5711C40.6106 21.5711 34.094 19.5181 33.2874 14.9354C33.1383 14.1276 33.172 13.2966 33.3861 12.5036C33.6003 11.7106 33.9893 10.9756 34.5247 10.3526C34.8014 10.0196 35.1083 9.71281 35.4413 9.4361C34.8651 8.03132 33.8566 6.84648 32.5619 6.05323C31.2673 5.25999 29.7537 4.89954 28.2404 5.02411C26.7272 5.14868 25.293 5.75178 24.1454 6.74607C22.9979 7.74036 22.1968 9.07419 21.8581 10.5543C21.2605 10.3932 20.6439 10.3131 20.025 10.316C18.247 10.3146 16.5323 10.9758 15.2155 12.1705C13.8987 13.3653 13.0744 15.0079 12.9035 16.7776C11.8136 16.1675 10.5832 15.8527 9.33417 15.8646C8.08518 15.8764 6.86096 16.2145 5.78287 16.8452C4.70478 17.476 3.81023 18.3775 3.18789 19.4605C2.56555 20.5434 2.23702 21.7702 2.23487 23.0193C2.22119 23.2452 2.22119 23.4716 2.23487 23.6975C3.07238 23.3175 3.98234 23.1236 4.90202 23.1293H5.53444C6.07017 21.8285 6.9848 20.7189 8.15946 19.9448C9.33412 19.1707 10.7145 18.7679 12.1211 18.7886C13.5278 18.8094 14.8956 19.2528 16.0469 20.0612C17.1982 20.8696 18.0797 22.0057 18.5768 23.3217C19.369 23.1471 20.1888 23.1378 20.9847 23.2945C21.7806 23.4513 22.5356 23.7707 23.2024 24.2327C23.8692 24.6947 24.4335 25.2895 24.8598 25.9796C25.2861 26.6698 25.5654 27.4405 25.6801 28.2436C25.7612 29.0581 25.6665 29.8805 25.4025 30.6553C25.1384 31.4301 24.7111 32.1392 24.1494 32.7347C23.2436 33.6733 22.1591 34.4212 20.9599 34.9344C23.1713 36.4273 25.7894 37.2019 28.4572 37.1524C33.1591 37.1524 37.1277 34.9985 38.4109 32.0381C39.2865 32.6934 40.3007 33.1394 41.3756 33.3418C42.4504 33.5442 43.5574 33.4975 44.6114 33.2055C45.6654 32.9134 46.6385 32.3837 47.4559 31.6571C48.2734 30.9304 48.9134 30.026 49.3269 29.0135C52.9931 28.0053 55.5686 25.3473 55.5686 22.2952C55.5663 21.514 55.3975 20.7422 55.0736 20.0313C52.4146 21.0854 49.5749 21.6085 46.7148 21.5711Z" fill="#D9D9D9"/>
<path d="M58.9778 13.3592C58.8705 12.6278 58.5895 11.9326 58.1583 11.3321C57.7272 10.7315 57.1584 10.2429 56.4997 9.9073C55.8409 9.57165 55.1114 9.39869 54.3721 9.40288C53.6328 9.40706 52.9053 9.58829 52.2504 9.93138C52.0431 8.60036 51.3791 7.38295 50.3723 6.48799C49.3655 5.59304 48.0786 5.0763 46.7325 5.02644C45.3863 4.97658 44.0648 5.39672 42.9946 6.21475C41.9243 7.03278 41.1721 8.19771 40.8669 9.50975C40.3911 9.38493 39.9015 9.32028 39.4096 9.31729C38.7139 9.29036 38.0207 9.4165 37.3791 9.68678C36.7374 9.95706 36.1629 10.3649 35.6961 10.8815C35.2293 11.3981 34.8816 12.0109 34.6776 12.6766C34.4736 13.3423 34.4181 14.0446 34.5152 14.7341C35.8626 22.5522 59.8302 22.3414 58.9778 13.3592Z" fill="#D9D9D9"/>
</svg>
