<svg width="60" height="59" viewBox="0 0 60 59" fill="none" xmlns="http://www.w3.org/2000/svg">
<path d="M20.979 46.1006C20.948 46.495 20.8322 46.8781 20.6395 47.2237C20.4469 47.5693 20.1819 47.8692 19.8627 48.103C19.5436 48.3368 19.1777 48.499 18.7901 48.5784C18.4025 48.6579 18.0023 48.6528 17.6169 48.5634C17.2315 48.4741 16.8699 48.3026 16.5568 48.0607C16.2437 47.8188 15.9865 47.5122 15.8028 47.1618C15.619 46.8114 15.5131 46.4254 15.4921 46.0304C15.4712 45.6353 15.5358 45.2403 15.6814 44.8725C16.0756 43.1769 19.5401 40.2256 19.5401 40.2256C19.5401 40.2256 21.3732 44.3867 20.979 46.1006Z" fill="#60B0FF"/>
<path d="M33.5443 48.6671C33.0494 50.8119 31.1522 52.2142 29.3007 51.7834C27.4493 51.3526 26.3587 49.2721 26.8536 47.1182C27.3485 44.9643 31.7296 41.2432 31.7296 41.2432C31.7296 41.2432 34.0393 46.5133 33.5443 48.6671Z" fill="#60B0FF"/>
<path d="M45.3306 46.1006C45.2996 46.495 45.1838 46.8781 44.9911 47.2237C44.7984 47.5693 44.5335 47.8692 44.2143 48.103C43.8951 48.3368 43.5293 48.499 43.1417 48.5784C42.7541 48.6579 42.3539 48.6528 41.9685 48.5634C41.5831 48.4741 41.2215 48.3026 40.9084 48.0607C40.5953 47.8188 40.3381 47.5122 40.1543 47.1618C39.9706 46.8114 39.8646 46.4254 39.8437 46.0304C39.8228 45.6353 39.8873 45.2403 40.033 44.8725C40.4271 43.1769 43.8916 40.2256 43.8916 40.2256C43.8916 40.2256 45.7247 44.3867 45.3306 46.1006Z" fill="#60B0FF"/>
<path d="M25.5431 31.3992C25.4338 30.6688 25.1517 29.975 24.7201 29.3756C24.2886 28.7762 23.7201 28.2885 23.062 27.9532C22.4039 27.6179 21.6752 27.4446 20.9367 27.4478C20.1981 27.4509 19.4709 27.6304 18.8157 27.9714C18.6084 26.6404 17.9444 25.423 16.9376 24.528C15.9308 23.633 14.644 23.1163 13.2979 23.0665C11.9517 23.0166 10.6302 23.4367 9.55995 24.2548C8.48972 25.0728 7.73748 26.2377 7.43229 27.5498C6.95648 27.425 6.46689 27.3603 5.97499 27.3573C5.27757 27.3267 4.58194 27.4497 3.93728 27.7175C3.29263 27.9854 2.71469 28.3916 2.24432 28.9074C1.77395 29.4232 1.42263 30.0361 1.21522 30.7027C1.00781 31.3692 0.949361 32.0732 1.04401 32.7649C2.42798 40.5921 26.3772 40.3813 25.5431 31.3992Z" fill="#D9D9D9"/>
<path d="M47.7145 24.5803C41.6104 24.5803 35.0938 22.5272 34.2781 17.9353C34.1302 17.1269 34.1654 16.2956 34.3811 15.5025C34.5968 14.7094 34.9875 13.9748 35.5246 13.3526C35.7965 13.0153 36.1037 12.708 36.4411 12.4361C35.8649 11.0313 34.8564 9.84647 33.5618 9.05323C32.2671 8.25998 30.7535 7.89954 29.2403 8.02411C27.7271 8.14868 26.2928 8.7518 25.1453 9.74609C23.9978 10.7404 23.1967 12.0742 22.858 13.5543C22.2594 13.3978 21.6435 13.3178 21.0249 13.316C19.2471 13.3185 17.5335 13.9808 16.2161 15.1746C14.8987 16.3683 14.0713 18.0086 13.8942 19.7776C12.8033 19.1742 11.5738 18.8662 10.3274 18.884C9.08092 18.9018 7.86072 19.2449 6.78755 19.8791C5.71438 20.5134 4.82546 21.4169 4.20877 22.5003C3.59207 23.5837 3.26899 24.8093 3.2715 26.0559C3.2715 26.285 3.2715 26.5141 3.2715 26.7341C4.11394 26.3593 5.02574 26.1657 5.9478 26.1659C6.15533 26.1524 6.36351 26.1524 6.57104 26.1659C7.10876 24.8659 8.02461 23.7574 9.19985 22.9842C10.3751 22.211 11.7555 21.8087 13.1622 21.8294C14.5688 21.8502 15.9368 22.293 17.0887 23.1006C18.2407 23.9081 19.1234 25.0431 19.6226 26.3583C20.0336 26.2583 20.4553 26.2091 20.8782 26.2117C22.3058 26.189 23.6916 26.6935 24.7705 27.6286C25.8493 28.5637 26.5455 29.8639 26.7258 31.2802C26.8043 32.0931 26.7084 32.9135 26.4445 33.6864C26.1805 34.4593 25.7546 35.167 25.1952 35.762C24.2943 36.7065 23.2085 37.4553 22.0056 37.9617C24.2105 39.4612 26.8278 40.2364 29.4937 40.1798C34.2047 40.1798 38.1734 38.0259 39.4565 35.0746C40.3314 35.73 41.3449 36.176 42.4191 36.3784C43.4933 36.5807 44.5997 36.5341 45.653 36.242C46.7064 35.9499 47.6787 35.4201 48.4953 34.6934C49.3119 33.9667 49.9509 33.0624 50.3633 32.0501C54.0295 31.0327 56.6142 28.3839 56.6142 25.3318C56.6083 24.551 56.4397 23.78 56.1192 23.068C53.4425 24.1133 50.5877 24.627 47.7145 24.5803Z" fill="#D9D9D9"/>
<path d="M59.9786 16.3595C59.87 15.6288 59.5881 14.9347 59.1564 14.3353C58.7247 13.7358 58.1558 13.2484 57.4973 12.9138C56.8387 12.5791 56.1097 12.4069 55.371 12.4116C54.6323 12.4163 53.9055 12.5978 53.2512 12.9408C53.0452 11.6094 52.3822 10.3912 51.3761 9.49528C50.37 8.59934 49.0834 8.08146 47.7372 8.03052C46.3909 7.97957 45.0689 8.39874 43.9979 9.21608C42.927 10.0334 42.1739 11.198 41.8678 12.51C41.389 12.3845 40.8963 12.3198 40.4013 12.3175C39.7047 12.2883 39.0101 12.4123 38.3665 12.6807C37.723 12.9492 37.1462 13.3556 36.6769 13.8713C36.2075 14.387 35.8571 14.9993 35.6502 15.6652C35.4433 16.3311 35.385 17.0343 35.4795 17.7251C36.8635 25.5615 60.831 25.3507 59.9786 16.3595Z" fill="#D9D9D9"/>
</svg>
