<svg width="59" height="59" viewBox="0 0 59 59" fill="none" xmlns="http://www.w3.org/2000/svg">
<path d="M15.5584 41.051C15.5112 39.1928 16.2039 37.3917 17.485 36.0419C18.766 34.6921 20.531 33.9036 22.3934 33.849C23.045 33.8502 23.6928 33.9485 24.3152 34.1408C24.7109 32.7179 25.5583 31.4614 26.7304 30.5597C27.9025 29.658 29.336 29.1596 30.816 29.1394C31.0166 29.1394 31.2255 29.1394 31.426 29.1394C31.8951 27.8317 32.7543 26.6986 33.8881 25.8924C35.0218 25.0862 36.3758 24.6456 37.768 24.6298C38.226 24.6332 38.6824 24.6835 39.13 24.7799C38.5841 20.3528 36.6084 16.2232 33.5015 13.0154C30.3945 9.80771 26.3253 7.69618 21.9088 7C23.3653 10.1303 24.0074 13.5765 23.7755 17.0198C23.5437 20.4632 22.4455 23.7927 20.5825 26.7006C18.7194 29.6086 16.1516 32.0011 13.1163 33.657C10.0811 35.3129 6.67644 36.1788 3.21697 36.1747C2.13987 36.1721 1.0645 36.0885 0 35.9246C1.64935 39.4853 4.2859 42.5007 7.59813 44.6144C10.9104 46.7281 14.7599 47.8519 18.6918 47.8529C19.1764 47.8529 19.6527 47.8529 20.129 47.7946C18.7736 47.2625 17.6115 46.3335 16.7956 45.1298C15.9797 43.926 15.5484 42.5041 15.5584 41.051Z" fill="#A07CFF"/>
<path d="M51.4129 34.4242C50.9208 34.4262 50.4294 34.4624 49.9423 34.5326C49.4356 33.4444 48.6257 32.5247 47.6093 31.8832C46.5929 31.2418 45.4129 30.9056 44.2103 30.9149C43.9308 30.9175 43.6518 30.9369 43.3747 30.9733C43.2548 29.6165 42.6434 28.3497 41.655 27.4101C40.6666 26.4705 39.3688 25.9223 38.0046 25.8681C36.6403 25.814 35.303 26.2576 34.2429 27.1159C33.1827 27.9742 32.4724 29.1885 32.2448 30.5315C31.7796 30.4015 31.2991 30.3342 30.816 30.3314C29.364 30.378 27.9813 30.962 26.9372 31.9697C25.893 32.9774 25.2622 34.3367 25.1675 35.7829C24.3313 35.2762 23.3718 35.0081 22.3934 35.0077C20.8645 35.1211 19.435 35.807 18.3919 36.9278C17.3488 38.0487 16.769 39.5216 16.769 41.051C16.769 42.5805 17.3488 44.0534 18.3919 45.1742C19.435 46.2951 20.8645 46.981 22.3934 47.0944C22.6734 47.09 22.9527 47.0649 23.229 47.0193C23.5977 48.1372 24.3056 49.113 25.2547 49.8119C26.2037 50.5108 27.3471 50.8982 28.5265 50.9204C29.3026 50.9209 30.0695 50.7531 30.7742 50.4286C31.6717 51.2784 32.7287 51.9427 33.8845 52.3833C35.0404 52.8239 36.2721 53.0321 37.5089 52.996C41.2356 52.996 44.3857 51.1788 45.4051 48.6865C46.3623 49.462 47.5561 49.8884 48.7892 49.8951C49.9442 49.8748 51.0657 49.5042 52.0045 48.8327C52.9433 48.1612 53.655 47.2205 54.045 46.1358C56.9361 45.3022 58.9999 43.0599 58.9999 40.4675C59.0083 37.1249 55.6075 34.4242 51.4129 34.4242Z" fill="#D9D9D9"/>
</svg>
