<svg width="60" height="59" viewBox="0 0 60 59" fill="none" xmlns="http://www.w3.org/2000/svg">
<path d="M33.5943 0C35.6923 4.52588 36.6163 9.50734 36.2811 14.4846C35.9459 19.4618 34.3622 24.2743 31.6763 28.478C28.9903 32.6817 25.2887 36.141 20.9131 38.5366C16.5375 40.9323 11.6289 42.187 6.64036 42.185C5.08627 42.187 3.53451 42.0645 2 41.8186C4.15817 46.4657 7.48243 50.475 11.6493 53.4565C15.8163 56.4381 20.684 58.2903 25.7789 58.833C30.8738 59.3757 36.0225 58.5904 40.724 56.5536C45.4254 54.5167 49.5197 51.2976 52.6083 47.2094C55.6969 43.1213 57.6748 38.3032 58.3496 33.2241C59.0243 28.145 58.3728 22.9777 56.4586 18.225C54.5444 13.4722 51.4326 9.29584 47.426 6.10217C43.4193 2.90849 38.6543 0.806271 33.5943 0Z" fill="#A07CFF"/>
</svg>
