<svg width="58" height="57" viewBox="0 0 58 57" fill="none" xmlns="http://www.w3.org/2000/svg">
<path d="M28.5306 11.3047C25.1279 11.299 21.7999 12.3024 18.9674 14.1881C16.135 16.0738 13.9253 18.757 12.6179 21.8985C11.3104 25.04 10.9639 28.4987 11.6221 31.8371C12.2803 35.1756 13.9137 38.2439 16.3157 40.654C18.7177 43.0641 21.7805 44.7079 25.1167 45.3773C28.4529 46.0468 31.9127 45.7119 35.0586 44.4151C38.2045 43.1182 40.8952 40.9176 42.7904 38.0915C44.6856 35.2655 45.7003 31.9409 45.706 28.5382C45.7098 26.2789 45.2686 24.0409 44.4075 21.9521C43.5464 19.8633 42.2823 17.9646 40.6875 16.3643C39.0926 14.764 37.1981 13.4935 35.1122 12.6254C33.0263 11.7573 30.7899 11.3085 28.5306 11.3047Z" fill="white"/>
<path d="M57.0387 28.5387L47.3678 20.744L48.7121 8.3653L36.2657 9.67084L28.4613 0L20.6569 9.67084L8.31693 8.32661L9.67085 20.7053L0 28.5L9.67085 36.3044L8.31693 48.6734L20.6956 47.3291L28.5 57L36.3044 47.3291L48.6734 48.6831L47.3292 36.2754L57.0387 28.5387ZM42.5324 42.5904C40.6898 44.4242 38.5762 45.9638 36.2657 47.1551C31.2351 48.775 25.8229 48.775 20.7923 47.1551C16.0905 44.7691 12.2601 40.9623 9.84493 36.2754C8.22697 31.2445 8.22697 25.8329 9.84493 20.802C11.0432 18.4685 12.5961 16.3349 14.4483 14.4773C16.3051 12.6104 18.4464 11.0501 20.7923 9.85459C25.8209 8.22152 31.2372 8.22152 36.2657 9.85459C38.6054 11.0429 40.7404 12.5969 42.5904 14.4579C44.4314 16.3212 45.9684 18.462 47.1454 20.802C48.7719 25.8316 48.7719 31.2458 47.1454 36.2754C45.9473 38.592 44.3977 40.7092 42.5518 42.5517L42.5324 42.5904Z" fill="white"/>
</svg>
