<svg width="59" height="59" viewBox="0 0 59 59" fill="none" xmlns="http://www.w3.org/2000/svg">
<path d="M29.5116 11.7014C25.9919 11.6954 22.5494 12.7341 19.6196 14.6859C16.6898 16.6378 14.4041 19.4152 13.0517 22.6669C11.6993 25.9186 11.3408 29.4986 12.0217 32.9542C12.7025 36.4098 14.3921 39.5858 16.8767 42.0805C19.3613 44.5752 22.5294 46.2766 25.9803 46.9695C29.4312 47.6625 33.01 47.3159 36.2641 45.9735C39.5182 44.6312 42.3014 42.3533 44.2617 39.4281C46.2221 36.5029 47.2717 33.0616 47.2776 29.5395C47.2815 27.2009 46.8251 24.8845 45.9344 22.7224C45.0437 20.5603 43.7362 18.5949 42.0865 16.9385C40.4368 15.2821 38.4771 13.967 36.3195 13.0684C34.1619 12.1698 31.8486 11.7053 29.5116 11.7014Z" fill="#FCC54C"/>
<path d="M59 29.54L48.9966 21.4718L50.3871 8.65882L37.5127 10.0102L29.44 0L21.3672 10.0102L8.60291 8.61877L10.0034 21.4318L0 29.5L10.0034 37.5782L8.60291 50.3812L21.4073 48.9898L29.48 59L37.5527 48.9898L50.3471 50.3912L48.9566 37.5482L59 29.54ZM43.9949 44.0848C42.089 45.983 39.9027 47.5765 37.5127 48.8096C32.3091 50.4864 26.7109 50.4864 21.5073 48.8096C16.6438 46.3399 12.6816 42.3995 10.1835 37.5482C8.50985 32.3408 8.50985 26.7393 10.1835 21.5319C11.423 19.1165 13.0293 16.9081 14.9451 14.9852C16.8657 13.0529 19.0807 11.4378 21.5073 10.2004C26.7087 8.50999 32.3113 8.50999 37.5127 10.2004C39.9328 11.4304 42.1413 13.0389 44.0549 14.9652C45.9592 16.8939 47.5491 19.1098 48.7665 21.5319C50.4489 26.7379 50.4489 32.3421 48.7665 37.5482C47.5272 39.9461 45.9243 42.1376 44.0149 44.0448L43.9949 44.0848Z" fill="#FCC54C"/>
</svg>
