<svg width="60" height="59" viewBox="0 0 60 59" fill="none" xmlns="http://www.w3.org/2000/svg">
<path d="M26.9966 43.0898C23.4365 44.2049 19.6174 44.183 16.0704 43.0273C14.3832 42.1654 12.8403 41.0464 11.497 39.7104C10.163 38.3665 9.04192 36.8269 8.17227 35.1448C7.00677 31.5187 7.00677 27.6185 8.17227 23.9923C9.03801 22.3079 10.1595 20.7677 11.497 19.4267C12.8381 18.086 14.3813 16.9642 16.0704 16.102C19.6895 14.9261 23.5881 14.9261 27.2073 16.102C28.8912 16.9709 30.4268 18.101 31.7573 19.4501C33.0902 20.7873 34.209 22.322 35.0742 24.0001C35.1288 23.8752 35.1834 23.7582 35.2458 23.6411L36.1824 15.0562L27.2463 16.024L21.6193 9L15.9845 16.024L7.04843 15.0562L8.02399 23.9923L1 29.6193L8.02399 35.2541L7.04843 44.1824L15.9845 43.2146L21.6193 50.2386L27.1839 43.3083L26.9966 43.0898Z" fill="#FCC54C"/>
<path d="M28.2369 29.0885C28.6864 29.0868 29.1352 29.1207 29.5793 29.19C30.0422 28.1909 30.7828 27.3461 31.7128 26.7566C32.6428 26.1671 33.7228 25.8576 34.8239 25.8653C35.0849 25.867 35.3456 25.8853 35.6043 25.9199C35.7086 24.6715 36.2655 23.5043 37.1704 22.6379C38.0753 21.7716 39.2656 21.2659 40.5174 21.216C41.7691 21.1661 42.9959 21.5755 43.9668 22.3671C44.9378 23.1587 45.5859 24.2779 45.7891 25.5141C46.216 25.395 46.6571 25.3346 47.1002 25.3346C48.4286 25.3746 49.6944 25.9087 50.6498 26.8325C51.6053 27.7562 52.1819 29.0031 52.2668 30.3294C53.0329 29.8686 53.9092 29.6232 54.8032 29.6192C56.2116 29.7108 57.5323 30.3348 58.4974 31.3646C59.4624 32.3945 59.9995 33.7529 59.9995 35.1643C59.9995 36.5756 59.4624 37.934 58.4974 38.9639C57.5323 39.9937 56.2116 40.6177 54.8032 40.7093C54.5416 40.7068 54.2806 40.6833 54.0228 40.6391C53.6825 41.6636 53.0329 42.5575 52.1636 43.1977C51.2942 43.8378 50.2478 44.1927 49.1684 44.2135C48.4571 44.2127 47.7542 44.0583 47.1081 43.7608C46.2879 44.5395 45.3212 45.1474 44.2641 45.5493C43.207 45.9512 42.0807 46.1392 40.9504 46.1022C37.532 46.1022 34.66 44.4398 33.7234 42.1531C32.8394 42.8663 31.7375 43.2547 30.6017 43.2536C29.5455 43.2363 28.5197 42.8977 27.6609 42.2828C26.802 41.668 26.1509 40.806 25.7942 39.8118C23.1563 39.0314 21.2676 36.9944 21.2676 34.614C21.291 31.5703 24.3971 29.0885 28.2369 29.0885Z" fill="#D9D9D9"/>
<path d="M25.0382 40.6788C22.1505 39.6408 20.2385 37.2604 20.2385 34.6304C20.2385 30.9935 23.8207 28.0356 28.238 28.0356C28.4799 28.0356 28.7375 28.0356 29.0184 28.0356C29.4817 27.2784 30.0895 26.6199 30.8073 26.0977C31.525 25.5754 32.3386 25.1997 33.2016 24.9919C32.3755 22.89 30.9918 21.0533 29.1994 19.6793C27.407 18.3054 25.2739 17.4463 23.0296 17.1946C20.7853 16.9428 18.5148 17.3079 16.4626 18.2506C14.4103 19.1932 12.654 20.6778 11.3827 22.5443C10.1114 24.4109 9.37328 26.5888 9.24772 28.8437C9.12217 31.0986 9.61396 33.345 10.6702 35.3412C11.7264 37.3374 13.307 39.0077 15.2419 40.1724C17.1768 41.337 19.3927 41.9519 21.651 41.9509C22.9436 41.9506 24.2282 41.7505 25.4596 41.3578C25.3076 41.1388 25.167 40.9122 25.0382 40.6788Z" fill="#FCC54C"/>
</svg>
